<?xml version="1.0" encoding="utf-8"?>
<!-- Generator: Adobe Illustrator 16.0.0, SVG Export Plug-In . SVG Version: 6.00 Build 0)  -->
<!DOCTYPE svg PUBLIC "-//W3C//DTD SVG 1.1//EN" "http://www.w3.org/Graphics/SVG/1.1/DTD/svg11.dtd">
<svg version="1.1" id="Layer_1" xmlns="http://www.w3.org/2000/svg" xmlns:xlink="http://www.w3.org/1999/xlink" x="0px" y="0px"
	 width="483.108px" height="368.919px" viewBox="0 0 483.108 368.919" enable-background="new 0 0 483.108 368.919"
	 xml:space="preserve">
<g>
	<path fill="#333333" d="M245.27,275.272c-0.225-0.687-0.795-1.248-1.747-1.268c-2.114-0.051-4.109-0.096-6.066,0.768
		c-1.836,0.806-2.601,3.104-3.273,4.795c-1.869,4.718,1.268,10.375,6.21,11.257c2.097,0.372,4.187,0.15,6.042-0.941
		c2.057-1.202,2.73-3.437,3.505-5.515C251.391,280.438,248.876,276.618,245.27,275.272z M241.619,286.406
		c-3.052-0.081-3.245-3.245-2.59-5.689c0.605-2.253,0.812-2.699,4.099-2.813v0.007c0,1.312,2.975,2.341,3.131,3.819
		C246.523,284.361,244.151,286.474,241.619,286.406z"/>
	<path fill="#333333" d="M478.137,280.737c-0.123-0.373-0.356-0.655-0.636-0.863c2.176-39.392,0.791-79.255,0.897-118.617
		c0.055-22.428,0.071-44.854-0.174-67.283c-0.222-19.291,0.911-39.01-0.111-58.353c0.541-7.311,0.074-14.897-2.37-21.733
		c-2.205-6.181-7.397-7.606-12.976-7.835c0.105-0.572,0.244-1.145,0.34-1.721c-86.8-2.458-87.745-0.474-174.568-0.105
		C199.434,4.611,110.31,4.297,21.212,5.734c-1.424,0.026-2.189,0.976-2.389,2.048c-4.486,1.093-8.425,2.5-11.016,7.307
		c-2.589,4.786-2.335,11.481-1.695,16.824C2.771,63.314,5.218,96.115,5.166,127.55c-0.061,33.979-1.845,68.572,0.113,102.533
		c-1.074,16.15-1.309,32.835,0.323,48.517c-1.563,14.406,3.848,32.088,20.508,29.144c0.128-0.021,0.207-0.081,0.319-0.118
		c17.465,2.249,35.802,1.064,53.312,1.129c22.798,0.098,45.59-0.004,68.389-0.004h45.991c0,0,0.024,0.155,0.044,0.169
		c1.013,0.605,1.764,1.53,2.352,2.578c0.044,0.733,0.34,1.47,0.853,2.092c1.59,5.248,0.412,13.167,0.415,18.744
		c-0.395,1.341-0.805,2.676-1.36,3.933c-0.908,2.025-2.719,2.115-4.238,3.182c-0.928,0.646-1.312,2.077-0.85,3.109
		c-11.206-0.037-22.408,0.159-33.495,1.237c-0.089,0.017-0.157,0.061-0.231,0.074c-1.023-0.366-2.42,0.229-2.515,1.758
		c-0.178,3.097-1.557,6.771-1.061,10.017c-0.802,0.192-1.625,0.35-2.414,0.578c-2.019,0.595-2.019,3.5,0,4.092
		c12.542,3.664,26.531,2.371,39.524,2.864c14.802,0.555,29.718,0.136,44.53,0.169c31.411,0.066,63.271,1.228,94.61-1.141
		c5.071-0.38,5.071-7.494,0-7.878c-0.077,0-0.149-0.007-0.221-0.014c0.038-2.89-1.013-6.003-1.176-8.688
		c-0.088-1.529-1.488-2.124-2.505-1.758c-0.085-0.017-0.146-0.058-0.241-0.067c-11.09-1.085-22.289-1.274-33.491-1.244
		c0.456-1.032,0.085-2.457-0.846-3.109c-1.517-1.06-3.335-1.149-4.235-3.175c-0.561-1.257-0.973-2.586-1.362-3.926
		c0-7.69-2.265-19.834,3.612-23.298c0.017-0.013,0.023-0.02,0.041-0.03c24.546,0-5.584,0.004,33.379,0.007
		c45.24,0.004,90.838,1.655,136.041-0.228c1.161-0.048,1.961-0.585,2.467-1.306c5.354-0.604,10.659-2.393,14.422-6.366
		C480.804,296.216,480.098,286.598,478.137,280.737z M10.822,20.24c0.996-6.041,5.869-7.802,10.886-9.389
		c88.928,1.434,177.886,1.123,266.831,1.506c86.508,0.374,87.137,2.335,173.634-0.082c-0.088-0.472-0.116-0.948-0.127-1.424
		c1.392,0.173,2.773,0.421,4.175,0.734c4.894,1.108,5.498,7.365,5.981,11.433c0.323,2.75,0.235,5.512,0.139,8.276
		c-1.467,20.719-0.169,41.944-0.403,62.679c-0.252,22.428-0.229,44.855-0.175,67.283c0.087,32.878-0.861,66.1,0.08,99.112
		c-0.3-0.16-0.663-0.272-1.075-0.316c-22.506-2.124-45.794-0.527-68.402-0.527l-119.03,0.024
		c-90.419,0.013-180.839,0.415-271.245,0.7c0.21-10.02-0.129-20.195-0.795-30.16c1.834-32.102,0.16-64.776,0.123-96.892
		c-0.028-33.365,2.64-68.283-0.986-101.598C10.666,27.815,10.197,24.031,10.822,20.24z M325.53,347.506
		c0.271,1.729,0.71,3.416,0.7,5.192c-0.007,0.396-0.017,0.785-0.023,1.176c-27.843-1.791-56.096-2.212-84.207-1.872
		c-28.124-0.34-56.371,0.081-84.217,1.872c-0.003-0.391-0.018-0.78-0.018-1.176c-0.017-1.776,0.425-3.464,0.69-5.192
		c18.533,1.742,37.335,0.904,55.916,0.981c2.76,0.014,5.519,0.051,8.299,0.092c6.424,0.299,12.871,0.343,19.329,0.285
		c6.447,0.058,12.897,0.014,19.325-0.285c2.77-0.041,5.543-0.078,8.297-0.092C288.202,348.41,307.011,349.248,325.53,347.506z
		 M286.51,342.591c-7.542,0.064-15.074,0.178-22.568,0.146c-0.893,0-1.801-0.015-2.701-0.021c-6.394-0.273-12.827-0.312-19.24-0.25
		c-6.427-0.062-12.854-0.023-19.243,0.25c-0.901,0.007-1.812,0.021-2.71,0.021c-7.494,0.031-15.022-0.082-22.56-0.146
		c0.602-0.562,1.111-1.247,1.485-2.045c0.476-1.015,0.771-2.074,0.983-3.166c0.883,0.014,1.774-0.509,1.967-1.566
		c0.935-5.071,0.765-10.831,0.357-16.223c26.01,1.159,53.207,3.06,79.173,1.193c0.064-0.003,0.122-0.023,0.188-0.034
		c-0.337,5.061-0.445,10.353,0.435,15.063c0.194,1.058,1.084,1.58,1.958,1.566c0.217,1.092,0.51,2.151,0.988,3.166
		C285.392,341.344,285.911,342.029,286.51,342.591z M473.275,297.49c-2.142,3.749-7.474,5.192-12.014,5.703
		c-0.507-0.432-1.136-0.751-1.978-0.79c-43.323-1.8-87.015-0.229-130.369-0.227c-43.507,0.007-0.815,0.011-44.329,0.011
		c-43.588,0.003-87.171,0.01-130.759,0.01c-22.802,0-45.591-0.007-68.385,0.088c-19.374,0.092-39.738-1.22-59.053,1.298
		c-0.095-0.033-0.173-0.098-0.278-0.125c-8.011-2.033-14.037-3.504-15.301-13.001c-0.32-2.378-0.65-4.996-0.857-7.652
		c0.381-0.393,0.672-0.911,0.765-1.618c0.629-5.356,1.009-10.855,1.227-16.409c90.46,0.275,180.924,0.686,271.391,0.699
		l119.03,0.028c22.608,0,45.896,1.59,68.402-0.534c0.49-0.048,0.874-0.207,1.221-0.418c0.35,10.359,0.87,20.697,1.707,30.994
		c0.026,0.229,0.081,0.424,0.165,0.597C473.688,296.596,473.531,297.044,473.275,297.49z"/>
</g>
<path fill="#333333" d="M394.602,60.774c18.167,0.027,36.361,0.053,54.485-0.24c0.072-0.002,0.132-0.008,0.202-0.011
	c4.46,0.277,8.055-1.08,10.268-2.448c1.08-0.668,1.643-1.378,1.863-2.104c0.105-0.048,0.205-0.097,0.291-0.152
	c2.516-1.634,1.426-4.085,1.482-5.919c0.07-2.34,0.054-4.684-0.042-7.023c-0.148-3.594-0.448-7.17-1.186-10.744
	c0.19-0.101,0.336-0.218,0.416-0.355c0.877-1.523,0.344-2.979-1.034-4.411c-0.746-0.775-1.194-1.261-3.111-1.727
	c-0.902-0.22-1.812-0.369-2.744-0.48c-0.456-0.276-1.259-0.488-2.419-0.534c-11.969-0.475-24.114-0.298-36.139-0.289l-36.137,0.025
	c-12.044,0.009-24.087,0.023-36.132,0.098c-11.116,0.068-22.76-0.206-33.833,0.383c-3.393-0.398-6.587,0.681-8.601,1.678
	c-1.221,0.604-0.949,1.242-1.289,1.939c-0.386,0.792-0.355,1.767,0.641,2.508c-0.829,3.626-0.928,7.264-1.044,10.908
	c-0.138,4.263-1.316,8.822,0.946,13.024c-0.041,1.004,0.391,1.995,1.609,3.05c1.207,1.042,3.618,2.119,6.528,2.305
	c0.144,0.034,0.297,0.065,0.467,0.091c4.902,0.747,11.243,0.412,16.439,0.412h39.351 M368.378,58.262h-40.406
	c-4.985,0-11.062-0.308-16.065,0.188c-0.732-0.142-1.484-0.259-2.163-0.462c-1.17-0.347-1.737-0.922-2.181-1.436
	c-0.64-0.749-0.92-1.494-1.105-2.247c1.766-3.864,0.782-7.994,0.66-11.885c-0.13-3.981-0.187-7.956-1.167-11.918
	c0.133-0.75-0.256-1.542-0.085-2.294c0.098-0.433,1.09-1.31,2.479-1.703c11.352,0.75,23.386,0.451,34.875,0.521
	c12.047,0.075,24.089,0.096,36.137,0.105c12.045,0.009,24.09,0.017,36.136,0.026c12.329,0.008,24.797,0.199,37.076-0.27
	c0.357,0.085,0.709,0.174,1.054,0.271c1.502,0.42,1.342,0.816,2.127,1.384c0.479,0.347,0.245,0.84,0.402,1.226
	c0.23,0.562,0.271,1.11,0.498,1.667c-0.812,3.626-1.166,7.254-1.317,10.901c-0.097,2.342-0.065,4.684-0.065,7.026
	c0,1.076,0.056,2.151,0.095,3.228c0.031,0.883-0.087,1.721,0.576,2.525c-0.116,0.182-0.237,0.365-0.374,0.545
	c-0.775,1.023-2.761,2.634-6.113,2.57c-0.787-0.016-1.42,0.081-1.901,0.235c-18.572-0.283-37.215-0.237-55.819-0.212"/>
<g>
	<polygon fill="#007EE5" points="319.592,33.214 313.486,37.201 317.707,40.582 323.865,36.78 	"/>
	<polygon fill="#007EE5" points="313.486,43.963 319.592,47.95 323.865,44.384 317.707,40.582 	"/>
	<polygon fill="#007EE5" points="323.865,44.384 328.138,47.95 334.243,43.963 330.022,40.582 	"/>
	<polygon fill="#007EE5" points="334.243,37.201 328.138,33.214 323.865,36.78 330.022,40.582 	"/>
	<polygon fill="#007EE5" points="323.878,45.151 319.592,48.707 317.76,47.51 317.76,48.852 323.878,52.521 329.997,48.852 
		329.997,47.51 328.163,48.707 	"/>
</g>
<rect x="335.878" y="35.749" fill="none" width="112.622" height="14.772"/>
<text transform="matrix(1 0 0 1 341.251 48.1387)" fill="#333333" font-family="'MarkerFelt-Wide'" font-size="15">10 photos added</text>
</svg>
