<?xml version="1.0" encoding="utf-8"?>
<!-- Generator: Adobe Illustrator 16.0.0, SVG Export Plug-In . SVG Version: 6.00 Build 0)  -->
<!DOCTYPE svg PUBLIC "-//W3C//DTD SVG 1.1//EN" "http://www.w3.org/Graphics/SVG/1.1/DTD/svg11.dtd">
<svg version="1.1" id="Layer_1" xmlns="http://www.w3.org/2000/svg" xmlns:xlink="http://www.w3.org/1999/xlink" x="0px" y="0px"
	 width="357.333px" height="377.333px" viewBox="0 0 357.333 377.333" enable-background="new 0 0 357.333 377.333"
	 xml:space="preserve">
<g>
	<g>
		<path fill="#FFFFFF" d="M218.613,19.188l-82.797-8.54c0,0-18.602-0.737-20.51,24.548c-1.921,25.285-16.458,186.125-16.458,186.125
			s-5.048,21.795,15.755,24.435c20.805,2.646,80.053,6.657,80.053,6.657s17.989,3.691,20.32-21.42
			c2.336-25.118,17.297-191.749,17.297-191.749S234.748,23.813,218.613,19.188z"/>
		<path fill="#FFFFFF" d="M224.292,23.379l-82.794-8.535c0,0-18.609-0.745-20.52,24.542
			c-1.909,25.293-16.453,186.121-16.453,186.121s-5.046,21.795,15.758,24.444c20.803,2.643,80.044,6.65,80.044,6.65
			s17.995,3.695,20.34-21.416c2.33-25.119,17.283-191.752,17.283-191.752S240.427,28.002,224.292,23.379z"/>
		<path fill="#D1D5E8" d="M235.362,31.371c-1.65-1.694-4.082,0.446-3.126,2.403c3.525,7.172,0.017,16.82-0.638,24.413
			c-0.604,7.071-1.472,14.124-2.085,21.184c-1.113,12.768-2.962,25.678-3.488,38.546c-0.335,0.297-0.619,0.664-0.741,1.194
			c-2.706,11.972-2.958,25.021-3.381,37.269c-0.305,8.61-1.485,17.18-1.345,25.774c-0.277,0.241-0.492,0.553-0.563,1.011
			c-1.394,9.504-2.079,19.109-2.946,28.666c-0.734,8.02-0.132,16.413-1.504,24.375c-0.284,0.214-0.553,0.492-0.744,0.905
			c-1.758,3.648-2.079,7.029-4.967,10.117c-2.427,2.613-5.617,4.739-9.098,5.759c-0.376-0.158-0.785-0.255-1.265-0.181
			c-5.694,0.845-10.828,0.234-16.561-0.617c-5.224-0.775-10.792-0.141-15.908-1.104c-2.076-0.386-2.834,2.404-0.868,3.129
			c5.945,2.217,13.413,1.553,19.697,2.729c4.753,0.885,10.085,1.134,14.827,0.178c0.383-0.077,0.69-0.231,0.933-0.416
			c5.583-1.113,10.744-4.567,14.143-9.188c0.141-0.077,0.284-0.185,0.428-0.339c3.031-3.501,5.183-9.39,4.515-13.984
			c-0.051-0.336-0.205-0.607-0.402-0.842c0.774-5.39,0.938-10.966,0.938-16.282c0-10.765,2.569-21.529,2.891-32.281
			c3.796-17.605,4.669-36.4,5.709-54.499c2.642-17.437,3.024-35.28,5.066-52.807c1.087-9.391,0.791-19.012,2.466-28.312
			C238.304,42.855,239.406,35.544,235.362,31.371z"/>
		<path fill="#333333" d="M186.366,36.604c-7.565-0.747-15.135-1.493-22.708-2.233c-1.338-0.129-1.901-1.229-1.798-2.271
			c0.005-0.119,0.062-0.228,0.088-0.344c-0.007-0.126-0.033-0.243-0.023-0.359c0.095-1.044,0.859-1.837,2.197-1.707
			c4.058,0.399,8.108,0.964,12.167,1.358c0.569,0.055,1.13,0.113,1.683,0.168c2.948,0.284,5.892,0.576,8.833,0.862
			c1.345,0.13,1.932,1.062,1.832,2.101c-0.014,0.125-0.054,0.151-0.088,0.265c0.007,0.116,0.041,0.196,0.034,0.31
			C188.479,35.797,187.711,36.729,186.366,36.604z"/>
		<path fill="#333333" d="M96.741,218.772c2.502-26.114,4.011-52.326,6.564-78.427l4.081-41.699
			c1.389-14.206,5.185-51.944,7.308-66.056c0.016-0.114,0.442-0.181,0.476-0.28c0.476-6.172,1.844-12.103,5.885-17.202
			c1.744-2.21,4.149-3.9,6.721-5.014c1.696-0.732,4.111-1.375,6.16-1.113c0.238-0.094,0.534-0.132,0.853-0.094
			c14.383,1.062,28.767,2.663,43.121,4.103c7.223,0.723,14.443,1.449,21.673,2.17c3.632,0.367,7.257,0.754,10.887,1.142
			c3.762,0.403,7.535,0.605,11.146,1.804c0.409,0.138,0.607,0.497,0.631,0.875c3.921,1.783,7.397,5.056,9.484,8.394
			c1.952,3.124,2.546,6.999,2.676,10.612c0.044,0.911-0.104,1.846-0.098,2.817c0.078,0.203-0.066,0.422-0.094,0.691
			c-0.036,0.396-0.077,0.776-0.114,1.168c-0.144,1.482,0,2.998-0.247,4.427l-9.512,100.992c-1.352,13.894-2.662,27.781-4.017,41.672
			c-0.166,1.699-0.323,3.396-0.474,5.092c-0.315,4.967-0.7,9.927-1.308,14.857c-0.074,0.59-0.989,0.6-0.929,0
			c0.795-7.178,1.227-14.359,1.542-21.586c0.312-7.282,1.57-14.598,2.109-21.9c0.018-0.178,0.212-0.229,0.325-0.156
			c0.959-12.63,1.952-25.253,3.133-37.871c1.751-18.64,5.358-60.757,7.401-79.358c0.977-8.885,0.292-18.368-6.057-23.839
			c-1.938-2.001-4.323-3.714-6.832-4.737c-6.24,0.384-12.813-0.867-18.965-1.454c-7.229-0.691-14.427-1.375-21.656-2.069
			c-14.72-1.401-29.471-2.644-44.154-4.427c-0.087-0.008-0.164-0.03-0.252-0.043c-1.633,0.289-3.434,0.228-5.007,0.726
			c-2.454,0.774-4.507,2.403-6.157,4.334c-3.33,3.887-4.744,9.112-5.654,14.233c0.503,0.189,0.903,0.657,0.873,1.379
			c-0.638,13.896-4.512,51.249-5.859,65.092l-4.078,41.694c-2.754,28.129-5.781,56.234-8.559,84.361
			c-0.016,0.258-0.104,0.47-0.224,0.647c-0.191,4.403,0.372,8.8,2.856,12.572c1.871,2.838,4.752,4.738,7.874,5.949
			c1.633,0.631,3.461,1.309,5.316,1.777c0.144-0.147,0.329-0.268,0.571-0.338c2.775-0.829,6.082-0.198,8.93,0.09
			c3.219,0.329,6.442,0.657,9.654,0.979c6.453,0.661,12.898,1.288,19.343,2.002c13.01,1.445,26.055,2.696,39.013,4.49
			c0.219,0.014,0.39,0.08,0.52,0.185c4.924-0.01,9.48-1.312,13.481-4.651c0.872-0.302,1.678-0.882,2.32-1.824
			c1.339-1.958,2.451-4.041,3.417-6.191c1.849-6.82,1.631-13.877,3.452-20.654c0.171-0.637,1.13-0.499,1.13,0.158
			c0,4.416-0.412,9.044-1.389,13.508c-0.292,6.271-1.881,12.181-6.821,16.842c-5.073,4.785-13.301,6.945-20.034,5.037
			c-0.406-0.111-0.631-0.383-0.734-0.701c-11.569-0.768-23.131-1.898-34.676-2.867c-6.462-0.55-12.909-1.187-19.367-1.794
			c-3.219-0.306-6.439-0.604-9.658-0.912c-2.317-0.215-4.984-0.266-7.281-1.01c-6.339,0.114-13.676-2.884-17.453-7.609
			C95.38,233.985,94.689,225.628,96.741,218.772z"/>
		<path fill="#333333" d="M110.414,243.962c1.536,1.277,3.323,2.264,5.204,2.994c1.63,0.635,3.458,1.305,5.316,1.781
			c0.137-0.151,0.326-0.274,0.56-0.349c2.777-0.822,6.097-0.191,8.944,0.097c3.213,0.329,6.43,0.654,9.642,0.982
			c6.453,0.661,12.905,1.281,19.351,1.996c13.002,1.456,26.054,2.696,39.016,4.497c0.215,0.01,0.379,0.077,0.523,0.185
			c5.063-0.017,9.753-1.382,13.848-4.95c4.101-3.589,5.445-8.578,6.432-13.683c-0.503-0.222-0.886-0.704-0.843-1.429
			c0.815-13.971,2.539-27.919,3.904-41.842c1.361-13.894,2.727-27.781,4.099-41.672l8.856-96.742
			c0.135-0.418,0.234-0.847,0.278-1.298c0.274-2.973,0.226-6.01,0.762-8.951c0.12-0.644,0.134-1.291,0.033-1.911
			c0.117-2.985,0.041-5.983-0.938-8.825c-1.392-4.036-5.483-8.411-10.071-10.549c-1.258-1.481-2.699-2.708-4.279-3.736
			c2.003,0.258,3.972,0.609,5.903,1.254c0.411,0.131,0.609,0.497,0.63,0.872c3.924,1.786,7.408,5.055,9.49,8.391
			c1.948,3.133,2.542,7.005,2.673,10.616c0.044,0.911-0.11,1.838-0.11,2.814c0.083,0.211-0.054,0.431-0.077,0.694
			c-0.037,0.395-0.08,0.781-0.121,1.168c-0.142,1.476,0,3-0.251,4.426l-9.508,100.997c-1.349,13.891-2.656,27.777-4.015,41.668
			c-1.371,14.025-2.378,28.143-4.252,42.108c-0.175,6.61-1.68,12.874-6.857,17.764c-5.074,4.782-13.304,6.945-20.035,5.037
			c-0.398-0.114-0.63-0.382-0.734-0.704c-11.57-0.765-23.123-1.898-34.676-2.867c-6.462-0.55-12.904-1.19-19.374-1.798
			c-3.22-0.298-6.432-0.6-9.655-0.905c-2.313-0.215-4.979-0.269-7.28-1.009c-6.342,0.113-13.676-2.885-17.449-7.613
			c-0.388-0.479-0.73-0.989-1.077-1.509C106.188,243.156,108.264,243.904,110.414,243.962z"/>
		<path fill="#333333" d="M114.756,99.271c-1.244,12.761-2.351,25.545-3.601,38.313c-2.537,25.956-5.099,51.916-7.238,77.91
			c-0.04,0.368,0.164,0.616,0.439,0.717c0.044,0.206,0.175,0.383,0.406,0.443c3.904,0.986,8.156,1.026,12.167,1.422
			c4.406,0.443,8.81,0.889,13.207,1.328c8.81,0.882,17.62,1.747,26.43,2.615c17.609,1.734,35.242,3.307,52.862,4.978
			c0.497,0.047,0.784-0.315,0.818-0.694c0.007-0.061,0.007-0.121,0-0.182c0.154-0.141,0.268-0.339,0.309-0.604
			c1.787-12.761,2.729-25.702,3.98-38.531c1.284-13.125,2.568-26.247,3.847-39.37c1.284-13.153,2.569-26.304,3.856-39.458
			c1.217-12.406,4.782-48.302,5.031-60.78c0.871-0.087,0.972-1.33,0.033-1.489c-0.067-0.014-0.145-0.023-0.215-0.035
			c-0.094-0.061-0.215-0.079-0.319-0.056c-6.028-1.022-12.172-1.569-18.293-2.103c-15.443-1.757-30.946-3.172-46.44-4.554
			c-13.341-1.291-26.696-2.512-40.049-3.756c-0.604-0.062-0.993,0.382-1.037,0.857c-0.017,0.176-0.061,0.346,0.007,0.505
			c-1.426,6.412-1.629,13.347-2.267,19.873C118.067,63.008,115.387,92.875,114.756,99.271z M105.46,215.314
			c2.928-25.805,5.359-51.668,7.888-77.521c1.294-13.162,2.699-26.319,3.988-39.483c0.62-6.394,3.292-36.258,3.923-42.653
			c0.58-5.983,1.606-12.229,1.529-18.269c12.958,1.333,25.802,2.663,38.773,3.95c15.741,1.676,31.474,3.321,47.242,4.606
			c5.798,0.633,11.588,1.246,17.385,1.42c-2.239,12.651-5.254,48.991-6.506,61.765c-1.294,13.15-2.679,26.303-3.968,39.444
			c-1.287,13.129-2.77,26.253-4.06,39.379c-1.211,12.43-2.271,24.906-3.833,37.38c0,0.014,0,0.021,0,0.027
			c-16.876-1.744-34.177-3.578-51.476-5.262c-8.806-0.858-17.216-1.718-26.026-2.559c-4.401-0.416-8.803-0.835-13.218-1.258
			C113.264,215.916,109.321,215.191,105.46,215.314z"/>
		<g>
			<path fill="#333333" d="M145.107,235.789c0.707,6.016,6.825,10.665,12.978,9.36c5.332-1.127,9.474-6.446,7.401-11.943
				c-1.51-4.011-4.493-8.366-8.887-8.064c-0.07-0.212-0.208-0.406-0.483-0.426C150.597,224.099,144.443,230.188,145.107,235.789z
				 M146.652,234.585c0.963-4.986,4.632-7.918,9.487-8.618c9.806-0.256,11.952,19.471-0.379,17.78
				C151.364,243.144,145.58,240.071,146.652,234.585z"/>
			<path fill="#333333" d="M150.976,238.348c0.298,0.896,1.67,0.963,2.595,0.982c1.439,0.312,3.364,0.635,4.824,0.322
				c0.905-0.194,1.233-1.117,1.311-1.935c0.087-1.023,0.11-2.104,0.312-3.116c0.131-0.646,0.362-1.382,0.102-2.032
				c-0.453-1.106-1.536-1.24-2.613-1.28c-0.051,0-0.076,0.033-0.12,0.04c-0.406-0.141-0.855-0.229-1.319-0.259
				c-0.942-0.061-1.847-0.295-2.786-0.359c-1.529-0.106-1.583,1.912-1.854,2.918c-0.245,0.97-0.286,1.959-0.423,2.941
				C150.906,237.207,150.774,237.734,150.976,238.348z M151.844,236.966c0.198-1.149,0.181-2.354,0.536-3.48
				c0.138-0.423,0.131-1.003,0.302-1.398c0.345-0.825,1.241-0.396,1.777-0.309c1.13,0.194,2.311-0.117,3.35,0.52
				c0.181,0.11,0.363,0.04,0.47-0.087c0.598,0.161,1.15,0.486,0.993,1.331c-0.102,0.496-0.225,0.982-0.282,1.482
				c-0.097,0.949-0.002,2.253-0.372,3.143c-0.492,1.217-3.971,0.225-5.013,0.247c-0.061,0-0.104,0.037-0.148,0.055
				C152.495,238.425,151.613,238.264,151.844,236.966z"/>
		</g>
	</g>
	<path fill="#D1D5E8" d="M294.033,210.65c0.885-1.094,1.385-2.565,1.104-4.307c-1.399-8.598-4.678-19.342-10.889-25.713
		c-2.678-2.742-6.756-4.881-10.582-5.151c-0.911-0.068-7.779-0.02-11.1-0.3c-0.771-0.699-1.59-1.297-2.442-1.777
		c-0.338-0.315-0.776-0.519-1.223-0.597c-2.703-1.137-5.655-1.1-8.572,0.724c-2.904,0.244-5.57,0.792-8.384-0.12
		c-3.391-1.099-6.798-2.064-10.206-3.027c-1.146-4.142-2.874-8.543-5.395-11.44c-0.781-0.893-1.56-1.652-2.425-2.447
		c1.676,1.541-0.584-0.824-0.843-1.048c-1.727-1.556-3.42-1.868-5.653-1.341c-0.553,0.13-1.07,0.301-1.58,0.477
		c-0.895-0.835-2.628-0.949-3.645-0.137c-2.084,1.692-3.223,5.085-4.143,7.494c-0.59,1.583-0.908,3.192-1.1,4.826
		c-0.222,0.79-0.241,1.546-0.171,2.334c-0.044,1.563,0.01,3.133,0.185,4.698c0.03,0.215,0.11,0.385,0.171,0.574
		c-0.279,1.302-0.966,2.339-1.881,3.427c-3.609-10.54-7.808-20.953-11.01-31.505c-4.126-13.649-9.092-26.616-18.308-37.636
		c-1.043-1.241-2.381-1.44-3.572-1.026c-3.099-2.123-6.144-1.764-7.904,4.695c-0.104,0.413-0.127,0.807-0.067,1.183
		c-0.181,0.529-0.295,1.105-0.295,1.747c0.158,18.247,6.101,36.137,9.343,53.958c1.65,9.046,3.006,18.213,4.695,27.221
		c0.873,4.587,1.208,9.239,1.477,13.888c-0.249,1.043-0.493,2.079-0.715,3.146c-0.831,4.085-0.872,9.129-1.892,13.438
		c-4.147,0.634-8.639-0.033-12.828-0.141c-2.666-5.182-5.194-10.437-7.421-15.722c-3.9-9.273-5.892-21.361-12.327-29
		c-0.071-0.09-0.164-0.156-0.245-0.236c2.17,10.251,2.562,21.801,1.193,31.945c-1.063,7.925-5.589,14.813-8.44,22.245
		c1.899,4.195,4.179,8.246,6.61,12.221h155.574C299.493,234.243,297.605,222.583,294.033,210.65z"/>
	<g>
		<path fill="#D1D5E8" d="M158.713,168.367c-2.243-6.605-8.207-8.652-14.716-8.909c-0.57-0.024-1.083-0.116-1.573-0.25
			c0.296,0.441,0.791,0.773,1.422,0.834c0.03,0.003,0.06,0.008,0.09,0.01c0.111,0.295,0.319,0.56,0.665,0.75
			c16.208,8.887-0.328,30.684-4.822,41.996c-4.819,12.152-7.724,27.193-14.96,38.039c-2.592,3.891,1.116,7.576,4.776,7.435
			c-0.118,0.279-0.196,0.567-0.282,0.853c-0.866,1.314-1.365,2.911-1.462,4.416c-0.182,2.609,0.436,5.151,0.838,7.71
			c-2.562,4.413-4.505,9.249-6.462,13.948c-1.795,4.31-2.909,8.263-5.471,12.271c-2.085,3.253-3.621,6.415-3.993,10.147
			c-2.952,2.13-5.497,4.648-8.247,7.027c-1.466,1.271-3.093,2.322-4.477,3.688c-0.795,0.774-1.805,1.365-2.683,2.043
			c-0.439,0.339-2.994,1.791-0.977,1.106c-2.357,0.791-3.203,3.628-1.449,5.493c1.654,1.751,3.958,1.838,6.295,1.247
			c-1.61,1.449-3.029,3.068-4.001,5.007c-0.543,1.098-0.76,2.56,0,3.639c5.91,8.317,3.746,16.587-0.416,25.589
			c-2.27,4.924-4.011,9.795,0.339,13.897c1.076,1.009,2.904,1.75,4.379,1.16c7.146-2.871,11.711-14.454,14.031-21.289
			c2.606-7.643,2.932-18.938-5.231-23.449c-1.077-0.599-2.213-0.744-3.293-0.603c0.077-0.201,0.153-0.372,0.234-0.587
			c0.393-0.442,0.739-0.938,1.083-1.426c3.807-1.227,6.1-4.57,8.452-7.622c2.525-3.276,4.819-6.697,5.839-10.647
			c4.845-4.621,8.584-12.12,10.647-18.14c2.153-6.258,3.052-12.398,3.914-18.643c1.446-0.953,2.368-2.596,2.599-4.447
			c2.941,0.416,5.399-0.402,7.465-3.096c0.945-1.244,1.07-2.984,0.68-4.584c-3.755,0.349-7.525-0.107-11.304-0.912
			c-3.288-0.704-5.166-4.487-4.307-7.586c0.295-1.087,0.848-1.982,1.555-2.683c-0.104-1.482,0.434-3.005,1.932-4.326
			c13.01-11.449,17.654-31.504,21.924-47.579C159.545,183.133,161.033,175.196,158.713,168.367z"/>
		<g>
			<path fill="#FFFFFF" d="M159.146,169.537c-0.896-6.015-5.296-9.34-10.441-11.32c-0.335,0.143-0.696,0.247-1.119,0.285
				c-6.956,0.63-10.346,5.867-13.546,11.302c-0.037,0.379-0.113,0.776-0.295,1.199c-4.493,10.683-10.872,20.232-17.348,29.802
				c-0.513,0.751-1.14,1.2-1.814,1.422c-2.297,3.85-4.739,7.612-7.285,11.322c-0.479,0.69-1.059,1.123-1.68,1.364l-0.137,1.479
				c-0.476,4.896-8.065,4.148-7.587-0.737l0.919-9.418c0.03-0.294,0.09-0.569,0.168-0.824c-0.49-0.644-0.765-1.489-0.661-2.529
				l8.903-91.062c-1.371,1.355-2.683,2.717-3.933,4.003c-5.386,5.549-10.517,11.351-15.282,17.445
				c-4.5,5.738-9.36,11.419-12.439,18.069c-0.674,0.981-1.315,1.988-1.885,3.077c-1.371,2.633-2.528,5.344-3.611,8.114
				c-2.522,6.471-4.313,13.089-5.809,19.866c-0.188,0.832-0.355,1.652-0.534,2.484c-0.241,0.709-0.499,1.412-0.734,2.122
				c-2.25,6.885-3.997,13.957-6.073,20.879c-1.2,3.997-4.015,9.912-3.397,14.595c-4.222,12.995-8.656,25.93-12.549,39.029
				c-1.164,3.93-2.311,7.881-3.387,11.852c-0.432,0.637-0.754,1.348-0.918,2.119c-1.55,7.297-3.753,14.742-4.209,22.254
				c-0.026,0.256-0.06,0.51-0.087,0.771c-0.03,0.315-0.057,0.661-0.09,1.013c-0.389,2.086-0.185,4.187,0.55,5.983
				c0.214,0.63,0.499,1.248,0.878,1.831c0.933,1.448,2.177,2.367,3.545,2.83c0.436,4.159,1.747,7.451,6.697,9.129
				c3.581,1.208,6.637-0.952,8.836-3.86c0.215,0.195,0.436,0.379,0.661,0.547c0.218,2.038,0.812,4.044,2.002,5.966
				c1.854,2.974,5.081,3.632,8.283,3.001c2.452-0.485,4.367-2.019,5.956-3.964c0.144,0.135,0.285,0.263,0.436,0.39
				c0.52,1.989,1.626,3.743,3.481,5.054c0.057-0.023,0.09-0.061,0.155-0.077c1.921-0.543,3.853-1.019,5.789-1.476
				c5.506-5.774,12.569-9.48,18.297-15.179c7.26-7.233,15.402-13.816,20.199-23.099c6.204-12.017,8.096-26.957,16.049-38.018
				c-0.77-0.784-1.22-1.877-1.106-3.044c0.138-1.439,1.106-2.613,2.375-3.137c-0.262-0.948-0.201-2.015,0.402-3.068
				c3.237-5.646,6.372-11.389,9.253-17.25c4.362-11.077,8.235-22.369,11.733-33.698
				C158.625,182.331,160.095,175.877,159.146,169.537z"/>
			<path fill="#333333" d="M101.031,175.139c-0.011-0.224-0.018-0.444-0.021-0.671c-0.127-2.955,0.261-5.903,0.942-8.783
				L101.031,175.139z"/>
			<path fill="#333333" d="M97.549,352.096c1.969-2.412,3.96-4.188,4.815-7.294c0.718-2.62,1.268-5.259,2.146-7.835
				c0.383-1.13,2.176-0.758,1.832,0.43c-0.917,3.239-1.365,6.56-2.163,9.819c-0.771,3.187-0.648,5.673-2.978,8.263
				C99.035,357.884,95.53,354.56,97.549,352.096z"/>
			<path fill="#333333" d="M7.565,341.696c0.014,0.017,0.024,0.025,0.03,0.039c-0.422-0.616-0.664-1.287-0.73-2.103
				c-0.078-0.908,0.231-1.609,0.563-2.418c0.342-0.798,0.765-1.466,1.311-2.152c1.399-1.73,4.215-1.651,5.768-0.219
				c1.597,1.477,1.744,4.085,0.262,5.702c-0.061,0.104-0.131,0.21-0.191,0.324c-0.55,1.101-1.405,1.976-2.599,2.354
				c-1.161,0.362-2.033,0.121-3.079-0.281c-0.554-0.215-0.896-0.678-1.241-1.127c-0.018-0.023-0.037-0.047-0.054-0.074
				C7.589,341.729,7.579,341.713,7.565,341.696z"/>
			<path fill="#D1D5E8" d="M147.357,158.626c-0.956,0.31-1.352,1.812-0.302,2.312c13.694,6.446,2.066,28.886-2.26,37.327
				c-6.701,13.049-14.89,25.521-18.221,39.969c-0.13,0.546-0.144,1.042-0.077,1.509c-2.907,7.542-4.937,15.457-6.67,23.327
				c-3.028,13.827-8.109,24.491-15.642,36.362c-1.639,2.583,2.097,5.416,4.193,3.24c17.586-18.243,21.647-42.939,27.983-66.716
				c0.023-0.081,0.026-0.151,0.042-0.229c4.764-8.316,7.876-18.217,11.628-26.802c3.937-9.015,8.491-17.154,10.75-26.812
				C160.328,175.519,158.064,155.214,147.357,158.626z"/>
			<path fill="#D1D5E8" d="M97.64,210.674c2.19-29.922,7.322-59.586,8.089-89.611c-0.325-0.874-0.748-1.684-1.268-2.388
				c-2.042-2.754-6.217-0.858-5.536,2.09c-1.278,0.25-2.435,0.865-3.27,1.768c-0.982,0.254-1.885,0.777-2.528,1.626
				c-0.697,0.907-1.483,2.33-2.194,3.979c-2.042,2.698-5.125,5.353-7.348,6.922c-1.606,1.14-2.186,3.15-1.793,4.844
				c-1.349,0.683-2.633,1.837-3.78,3.65c-0.926,1.458,0.945,3.422,2.421,2.419c11.174-7.596,13.28,12.425,13.616,27.895
				c-1.509,11.425-2.606,24.85-1.319,35.651c0.282,2.396,3.452,3.773,4.84,1.312C97.596,210.785,97.614,210.725,97.64,210.674z"/>
			<path fill="#333333" d="M9.108,326.779c-0.01,3.938,4.755,6.258,7.945,4.157c2.519-1.646,3.964-3.782,5.523-6.297
				c1.348-2.188,2.975-3.397,4.789-5.124c0.346-0.34,0.698-0.665,1.036-0.993c0.165-0.064,0.45-0.208,0.873-0.426
				c0.526-0.231,1.861-1.134,2.542-1.137c0.345,0,0.684-0.014,1.02-0.048c0.224,0.115,0.466,0.235,0.724,0.339
				c1.542,0.641,3.719,0.92,5.114,1.801c1.613,1.017,3.152,2.181,5.145,2.19c1.137,0,2.857,0.981,4.333,1.352
				c2.042,0.52,4.088,0.878,6.177,1.187c1.473,0.218,3.683-0.007,5,0.661c3.531,1.781,6.965,3.163,11,2.68
				c4.41-0.523,8.707,0.999,13.169,0.758c4.813-0.256,9.508-0.182,14.313-0.147c1.631,0.01,4.048-0.751,5.607-0.335
				c1.777,0.479,3.609,0.71,5.383,1.181c1.389,0.361,2.408,0.308,3.346,1.361c1.13,1.236,2.304,2.092,3.038,3.45
				c0.097,0.543,0.111,1.053-0.016,1.485c-0.604,2.167-3.177,3.468-3.995,5.745c-0.818,2.27-1.053,5.275-1.519,7.689
				c-0.534,2.711-0.879,5.396-0.57,8.129c-0.285,0.89-0.346,1.855-0.67,2.774c-0.494,1.392-2.16,3.189-3.29,4.188
				c-3.364,2.972,1.502,8.811,5.037,6.03c3.447-2.696,2.149-5.822,3.135-9.075c0.275-0.436,0.396-0.693,0.372-0.791
				c0.249-0.147,0.469-0.321,0.661-0.529c0.742-0.802,0.664-1.645,0.976-2.634c0.769-2.472,1.788-4.997,3.049-7.273
				c2.052-3.689,6.536-7.612,5.771-12.354c-0.459-2.884-1.65-5.094-3.089-7.227c-1.141-3.17-3.411-5.836-6.134-7.992
				c0.423-0.157,0.818-0.389,1.171-0.751c7.163-7.211,9.325-17.59,14.866-25.93c2.327-3.488,3.313-7.64,5.229-11.362
				c2.02-3.951,3.702-8.136,5.476-12.221c3.013-6.922,5.557-14.863,9.478-20.679l-6.885-0.677c-0.235-0.021-0.426-0.225-0.624-0.275
				c-0.053,0.084-0.094,0.023-0.137,0.111c-1.785,3.182-3.313,6.438-4.757,9.735c-1.207,2.096-2.394,4.191-3.507,6.378
				c-0.227,0.456-0.271,0.893-0.185,1.281c-1.354,2.273-2.568,4.621-3.417,7.109c-0.707,2.076-1.389,4.122-2.096,6.141
				c-0.372,0.859-0.742,1.714-1.086,2.572c-1.536,3.811-3.26,7.188-5.251,10.775c-2.167,3.92-4.31,7.777-6.1,11.898
				c-1.751,4.048-4.196,7.496-6.393,11.292c-0.298,0.529-0.432,1.047-0.435,1.546c-0.688-0.372-1.379-0.721-2.07-1.033
				c-4.203-1.922-8.894-1.56-13.417-1.871c11.553-7.389,21.691-17.174,28.267-29.109c2.415-4.387,3.793-9.151,5.702-13.753
				c1.837-4.431,3.001-8.454,3.695-13.203c0.645-4.394,1.402-8.368,2.881-12.569c0.144-0.429,0.292-0.849,0.439-1.278
				c0.52-0.094,1-0.382,1.261-0.959c2.793-6.009,5.191-12.156,7.692-18.27c0.111-0.041,0.199-0.095,0.305-0.138
				c0.171-0.396,0.343-0.785,0.515-1.181c-0.152-0.634-0.136-1.345,0.139-2.106c3.595-10.154,8.026-19.95,12.409-29.778
				c0.144-0.315,0.314-0.589,0.497-0.833c0.526-1.177,1.039-2.346,1.582-3.508c0.151-0.315,0.332-0.582,0.517-0.828
				c0.138-0.341,0.281-0.681,0.413-1.023c0.908-2.623,1.683-5.284,2.216-8.009c1.289-6.645,0.362-11.473-4.259-16.586
				c-2.184-2.417-3.438-4.225-6.55-5.459c-2.447-0.969-5.624-1.079-8.223-0.896c-6.04,0.414-9.507,9.373-12.207,13.614
				c-1.959,3.102-4.263,6.37-5.755,9.727c-1.519,3.384-2.803,6.903-4.503,10.201c-1.858,3.601-3.907,6.711-6.349,9.927
				c-1.003,1.334-1.875,2.734-2.632,4.189c-1.899,1.824-2.84,4.275-4.838,6.16c-2.623,2.459-4.897,5.191-7.58,7.565
				c-0.086,0.067-0.171,0.142-0.255,0.208c-0.06-1.348-0.526-2.739-0.882-4.091c0.017-0.167,0.017-0.288,0.017-0.288
				c0.621-0.402,0.302-1.383-0.342-1.547c0.282-1.076,0.584-2.152,0.946-3.209c-0.171-0.396-0.235-0.818-0.265-1.262
				c0.358-1.615,0.748-3.222,1.164-4.828c0.522-2.015,1.273-4.045,0.73-6.105c-0.204-0.8-1.12-0.838-1.493-0.144
				c-0.901,1.662-1.308,3.745-1.502,5.747l0.708-7.182c-0.319,3.225-1.264,6.394-2.075,9.526c-0.58,2.267-1.107,4.256-1.194,6.563
				c-0.023,0.714,0.043,1.663,0.064,2.611c-0.235,0.379-0.434,0.785-0.563,1.182c-0.439,1.33-0.698,2.753-1.093,4.114
				c-0.379,1.301-0.691,2.488-0.45,3.833c0.027,0.154,0.094,0.275,0.145,0.406c-0.695,0.791-1.302,1.646-1.749,2.609
				c-1.451,3.145-3.755,5.915-5.65,8.812c-1.074,1.663,1.352,3.005,2.629,1.868c1.449-1.284,2.464-2.928,3.85-4.249
				c1.026-0.979,2.213-1.908,2.921-3.148c1.936-3.404,5.272-5.359,8.008-8.032c2.345-2.287,4.235-4.8,6.271-7.337
				c1.014-1.266,1.724-2.871,2.477-4.428c0.684,0.127,1.424-0.094,1.753-0.846c1.535-3.416,3.45-6.539,5.969-9.342
				c1.664-1.845,2.683-4.292,3.824-6.499c1.536-2.977,2.854-6.077,4.135-9.166c1.109-2.657,2.743-4.767,4.097-7.251
				c0.818-1.506,1.747-2.94,2.696-4.363c2.15,2.503,5.645,3.806,8.606,5.032c1.204,0.496,2.457,0.918,3.778,0.784
				c1.284-0.129,0.923-0.506,1.724-0.677c0.43-0.082,0.792-0.541,0.873-0.983c0.368-0.186,0.601-0.652,0.583-1.044
				c-0.083-2.231,1.418-3.906,1.081-6.247c-0.208-1.442-0.577-2.792-1.631-3.878c-1.948-2.027-4.48-3.73-7.301-3.73
				c0.923-0.57,1.919-0.838,2.996-0.557c2.451,0.64,5.469,0.459,6.927,3.043c1.338,2.351,3.325,4.427,4.193,7.038
				c1.918,5.708-1.707,13.16-3.491,18.549c-1.141,3.421-2.995,6.523-4.387,9.843c-1.13,2.686-1.897,5.543-2.965,8.266
				c-3.548,9.105-6.643,18.354-9.838,27.577c-4.115,6.586-7.386,13.87-8.773,21.47c-1.604,8.727-4.401,17.583-8.465,25.554
				c-4.275,8.385-11.1,16.098-18.124,22.329c-5.12,4.547-11.267,8.045-17.368,11.439c-1.562-0.034-3.125-0.108-4.677-0.323
				c-2.771-0.361-5.306-0.979-8.103-0.553c-1.549,0.229-3.112,0.584-4.651,0.181c-2.033-0.525-4.081-1.429-6.217-1.361
				c-1.942,0.061-3.961,0.587-5.913,0.328c-2.458-0.335-4.712-1.162-7.107-1.656c-0.741-0.147-1.502-0.284-2.263-0.308
				c-0.118-0.088-0.396-0.222-0.842-0.416c-1.747-0.982-3.42-1.368-5.301-1.992c-1.056-0.353-1.992-0.861-2.985-1.261
				c-0.083-1.302-0.161-2.603-0.238-3.904c-0.225-3.797-0.58-7.418-0.124-11.208c0.285-2.33,0.416-4.741,0.469-7.129
				c1.017-2.908,1.57-5.983,2.076-9.062c0.795-2.448,1.57-4.903,2.183-7.398c1.13-3.581,2.314-7.153,3.438-10.731
				c0.017-0.06,0.033-0.117,0.057-0.174c0.335-0.758,0.65-1.53,0.939-2.295c0.201-0.234,0.373-0.522,0.486-0.864
				c2.727-8.271,4.873-16.708,7.257-25.078c0.336-0.933,0.688-1.861,1.07-2.767c1.922-4.491,3.25-9.417,4.762-14.062
				c1.69-5.191,3.327-10.34,5.121-15.511c2.609-7.544,4.749-15.175,6.492-22.925c1.445-3.783,2.663-7.638,3.857-11.535
				c2.103-6.915,4.906-13.349,8.587-19.571c5.739-9.683,13.421-17.467,21.755-25.144c0.661,1.345,1.127,3.304,1.312,4.169
				c0.368,1.826,0.257,3.712,0.768,5.497c0.412,1.418,2.216,1.687,2.87,0.278c0.208-0.449,0.339-0.954,0.443-1.469
				c0.379-0.285,0.661-0.711,0.705-1.294c0.294-3.506-0.215-7.042-1.657-10.269c-0.268-0.623-0.721-0.962-1.208-1.088l0.839-8.628
				c-1.301,0.586-1.502,1.277-2.2,1.958c-3.334,3.288-7.317,5.891-10.672,9.141c-3.196,3.085-6.19,6.395-9.467,9.413
				c-1.261,1.174-2.545,2.343-3.891,3.436c-1.941,2.549-3.849,5.116-5.895,7.558c0.158,0.116,0.355,0.203,0.553,0.263
				c-0.462,0.699-0.902,1.452-1.291,2.269c-0.829,1.772-1.734,3.514-2.606,5.261c-0.794,1.447-1.563,2.913-2.277,4.397
				c-4.822,10.017-7.696,21.104-9.732,32.027c-1.254,4.913-2.814,9.799-4.498,14.576c-3.484,9.894-6.261,20.023-9.93,29.862
				c-2.056,5.511-3.575,11.396-5.205,17.05c-1.472,5.038-2.589,10.168-3.776,15.272c-0.017,0.047-0.027,0.091-0.037,0.134
				c-0.155,0.396-0.299,0.815-0.413,1.241c-0.104,0.433-0.208,0.875-0.295,1.314c-0.473,0.362-0.855,0.898-1.093,1.63
				c-3.427,10.734-8.119,21.302-8.344,32.729c-0.094,4.477,0.308,8.367,1.647,12.478c-0.342,0.014-0.674,0.027-0.983,0.027
				c-3.682-0.021-5.547,0.047-8.491,2.556C13.904,314.86,9.125,319.495,9.108,326.779z M141.81,162.436
				c2.73-0.446,7.049,1.811,7.871,4.705c0.724,2.521-0.409,4.407-0.922,6.697c-0.242,0.091-0.45,0.234-0.604,0.439
				c-0.331,0.031-0.64,0.148-0.872,0.423c-0.439,0.523-2.814-0.914-3.3-1.155c-1.509-0.763-3.015-1.382-4.413-2.366
				c-0.983-0.694-1.809-1.342-2.851-1.717c0.529-0.84,1.062-1.68,1.545-2.545c0.708-1.254,1.771-3.164,3.122-4.62
				C141.491,162.381,141.639,162.441,141.81,162.436z"/>
		</g>
	</g>
	<g>
		<g>
			<polygon fill="#007EE5" points="132.714,94.713 124.465,98.96 129.367,103.792 137.656,99.785 			"/>
			<polygon fill="#007EE5" points="123.581,107.52 130.789,113.363 136.663,109.408 129.367,103.792 			"/>
			<polygon fill="#007EE5" points="136.663,109.408 141.604,114.48 149.854,110.232 144.952,105.401 			"/>
			<polygon fill="#007EE5" points="150.737,101.673 143.53,95.83 137.656,99.785 144.952,105.401 			"/>
			<polygon fill="#007EE5" points="136.578,110.381 130.689,114.322 128.525,112.567 128.35,114.265 135.615,119.709 
				143.839,115.864 144.014,114.166 141.537,115.442 			"/>
		</g>
		<g>
			<path fill="#007EE5" d="M153.268,115.676l3.573,0.369c1.042,0.107,2.512,0.259,3.813-0.554c1.586-0.969,2.577-3.173,2.84-5.72
				c0.69-6.685-3.535-7.141-5.617-7.356l-3.206-0.331L153.268,115.676z M157.411,104.734l0.51,0.053
				c1.205,0.125,2.844,0.438,2.413,4.616c-0.458,4.442-2.147,4.412-3.333,4.29l-0.51-0.052L157.411,104.734z"/>
			<path fill="#007EE5" d="M164.848,106.717l-1.038,10.047l2.796,0.289l0.448-4.341c0.08-0.774,0.32-3.097,2.382-2.884
				c0.103,0.011,0.225,0.023,0.465,0.089l0.282-2.731c-0.138-0.056-0.278-0.091-0.483-0.112c-1.633-0.169-2.299,1.492-2.634,2.323
				l0.25-2.425L164.848,106.717z"/>
			<path fill="#007EE5" d="M174.684,107.506c-3.001-0.31-4.321,1.675-4.645,4.814c-0.335,3.24,0.643,5.359,3.542,5.658
				c2.941,0.304,4.313-1.593,4.645-4.813C178.551,110.027,177.665,107.814,174.684,107.506z M174.481,109.463
				c0.858,0.089,1.113,0.815,0.846,3.403c-0.277,2.69-0.706,3.243-1.523,3.159c-0.837-0.086-1.141-0.736-0.866-3.405
				c0.254-2.466,0.625-3.251,1.523-3.159L174.481,109.463z"/>
			<path fill="#007EE5" d="M179.574,108.238l-1.389,13.45l2.756,0.284l0.427-4.136c0.273,0.357,0.727,0.96,1.829,1.074
				c3.206,0.331,3.811-3.52,3.958-4.946c0.174-1.691,0.009-3.295-0.868-4.395c-0.439-0.54-1.165-0.903-1.839-0.973
				c-1.368-0.141-2.023,0.8-2.438,1.417l0.156-1.508L179.574,108.238z M181.913,112.557c0.093-0.896,0.24-2.322,1.506-2.191
				c1.083,0.112,1.019,1.526,0.835,3.298c-0.219,2.12-0.448,3.352-1.592,3.234c-1.185-0.122-1.096-0.979-0.946-2.425
				L181.913,112.557z"/>
			<path fill="#007EE5" d="M188.858,105.613l-1.403,13.593l1.653,0.17c0.299-0.69,0.422-0.883,0.666-1.249
				c0.192,0.534,0.559,1.581,2.172,1.748c0.531,0.055,1.093,0.01,1.674-0.219c1.937-0.768,2.37-3.771,2.468-4.709
				c0.25-2.424-0.251-5.174-2.722-5.43c-1.204-0.124-1.822,0.472-2.215,0.863l0.463-4.484L188.858,105.613z M190.882,112.989
				c0.053-0.509,0.105-1.019,0.473-1.373c0.231-0.244,0.575-0.372,0.942-0.334c0.796,0.083,1.156,0.799,0.883,3.447
				c-0.268,2.589-0.727,3.241-1.604,3.15c-1.186-0.123-1.051-1.426-0.933-2.568L190.882,112.989z"/>
			<path fill="#007EE5" d="M201.429,110.268c-3.002-0.31-4.321,1.675-4.646,4.814c-0.334,3.24,0.644,5.359,3.543,5.659
				c2.94,0.303,4.312-1.594,4.646-4.813C205.295,112.789,204.409,110.575,201.429,110.268z M201.227,112.225
				c0.856,0.088,1.112,0.814,0.845,3.403c-0.277,2.69-0.705,3.243-1.522,3.159c-0.837-0.086-1.143-0.736-0.867-3.405
				c0.255-2.466,0.626-3.251,1.524-3.159L201.227,112.225z"/>
			<path fill="#007EE5" d="M205.38,110.902l2.087,5.179l-3.511,4.828l2.429,0.25l2.007-2.84l1.158,3.167l3.042,0.314l-2.421-5.935
				l3.05-4.154l-2.429-0.251l-1.527,2.19l-0.841-2.435L205.38,110.902z"/>
		</g>
	</g>
	<g>
		<path fill="#FFFFFF" d="M342.004,310.595c-4.016-6.191-8.882-11.698-13.033-17.809c-3.826-5.601-4.477-13.836-8.584-19.078
			c0.776-14.32-0.964-28.244-2.037-43.013c-1.05-14.472-4.218-26.162-9.185-37.957c0.758-1.188,1.103-2.708,0.63-4.408
			c-2.308-8.397-6.724-18.727-13.583-24.397c-2.957-2.438-7.239-4.125-11.076-3.986c-0.905,0.029-7.729,0.813-11.063,0.896
			c-0.841-0.612-1.717-1.121-2.612-1.51c-0.372-0.28-0.828-0.439-1.292-0.462c-2.796-0.838-5.73-0.483-8.43,1.645
			c-2.874,0.551-5.464,1.373-8.354,0.776c-3.493-0.729-6.984-1.328-10.479-1.915c-1.579-3.996-3.763-8.2-6.593-10.796
			c-0.861-0.804-1.717-1.477-2.659-2.169c1.823,1.347-0.682-0.758-0.949-0.956c-1.896-1.36-3.605-1.494-5.771-0.729
			c-0.541,0.192-1.037,0.414-1.525,0.647c-0.973-0.735-2.717-0.661-3.626,0.253c-1.898,1.903-2.666,5.394-3.314,7.9
			c-0.421,1.628-0.573,3.271-0.583,4.912c-0.138,0.804-0.076,1.562,0.077,2.334c0.121,1.558,0.353,3.116,0.697,4.655
			c0.044,0.208,0.142,0.375,0.219,0.557c-0.131,1.316-0.708,2.425-1.503,3.604c-4.712-10.091-10-19.991-14.319-30.137
			c-5.557-13.131-11.898-25.496-22.245-35.458c-1.167-1.124-2.519-1.181-3.651-0.641c-3.311-1.772-6.305-1.092-7.365,5.522
			c-0.053,0.416-0.032,0.808,0.067,1.179c-0.127,0.543-0.178,1.133-0.1,1.772c2.109,18.126,9.929,35.27,15.069,52.642
			c2.617,8.818,4.944,17.791,7.59,26.565c1.354,4.464,2.187,9.051,2.955,13.646c-0.131,1.063-0.268,2.116-0.372,3.203
			c-0.396,4.147,0.11,9.172-0.45,13.565c-4.048,1.069-8.581,0.892-12.757,1.224c-3.213-4.856-6.284-9.807-9.068-14.823
			c-4.868-8.803-8.149-20.615-15.365-27.509c-0.399-0.384-0.832-0.629-1.269-0.78c-3.722-4.462-12.622-0.855-11.191,5.217
			c2.818,11.875,1.406,24.341,4.85,36.507c4.131,14.595,14.9,26.095,24.104,37.809c11.546,14.709,26.64,37.452,45.383,46.902
			c-0.529,2.153-0.305,4.572-0.123,6.719c0.01,0.693,0.106,1.371,0.314,2.038c-0.021-0.058,0.299,2.857,0.343,1.768
			c-0.067,1.945,0.08,3.521,0.758,5.365c0.021,0.067,0.071,0.132,0.097,0.195c-1.028,2.455,0.231,6.046,3.25,6.17
			c16.818,0.682,33.485-2.363,50.12-4.501c20.312-2.604,41.319-4.372,61.183-9.429c1.28-0.329,2.18-0.994,2.793-1.788
			c0.627,0.285,1.251,0.573,1.882,0.854C341.637,314.169,342.949,312.05,342.004,310.595z"/>
		<path fill="#D1D5E8" d="M201.869,200.241c-2.183-11.099-3.339-22.433-5.59-33.56c-2.28-11.259-8.29-22.449-13.528-32.567
			c-3.065-5.914-6.395-11.414-7.646-18.005c-0.423-2.252-0.734-5.631,0.242-7.752c0.754-1.666,2.236-2.366,2.686-4.12
			c0.318-1.226-1.59-1.997-2.261-0.957c-0.349,0.546-2.26,1.443-2.786,1.837c-1.19,0.897-2.676,2.691-2.803,4.241
			c-0.427,5.229-0.971,10.474,0.687,15.606c1.629,5.022,4.454,9.759,6.573,14.612c2.41,5.535,4.942,10.961,7.229,16.553
			c3.66,8.943,5.034,17.823,6.675,27.173c0.257,1.962,0.516,3.93,0.802,5.893c-0.682,0.436-1.175,1.204-1.118,2.158
			c0.312,4.873,1.751,9.466,2.637,14.244c0.362,1.958,0.513,3.946,0.663,5.929c0.095,1.225,0.55,6.57-0.495,7.352
			c-0.594,0.438-0.769,1.196-0.635,1.888c-2.065,0.785-1.529,4.272,0.818,3.772c4.065-0.868,7.643-3.44,9.366-7.267
			C205.726,212.065,202.886,205.385,201.869,200.241z"/>
		<path fill="#D1D5E8" d="M224.292,143.595c-6.254,1.909-5.57,9.164-5.288,14.513c0.185,3.324,0.575,6.166,1.106,9.447
			c0.419,2.575,0.724,2.215-0.494,0.065c-0.411-0.732-0.751-1.385-1.206-2.096c-0.621-0.974-2.066-0.208-1.969,0.81
			c0.269,2.621,0.259,5.381,2.581,7.169c2.234,1.727,4.434,0.589,5.515-1.691c1.539-3.251-0.574-7.435-0.882-10.681
			c-0.199-2.069,0.171-4.234,0.032-6.31c-0.247-3.878,0.362-5.53,2.737-8.449C227.655,144.853,225.905,143.105,224.292,143.595z"/>
		<path fill="#333333" d="M345.165,309.89c-0.982-0.553-2.232-0.335-2.854,0.657c-0.638,1.021-0.235,2.164,0.654,2.844
			c-0.43-0.331,0.113,0.127,0.198,0.208c0.09,0.092,0.649,0.802,0.338,0.362c0.114,0.162,0.802,1.174,0.372,0.548
			c0.138,0.208,0.362,0.885,0.138,0.16c0.352,1.144,1.412,1.929,2.632,1.653c1.148-0.261,1.95-1.472,1.654-2.636
			C347.892,312.076,346.598,310.698,345.165,309.89z"/>
		<path fill="#333333" d="M236.596,335.042c-0.224-0.55-0.64-1.007-1.025-1.458c-0.518-0.642-1.398-1.037-2.211-1.017
			c-1.213,0.037-2.26,0.851-2.313,2.126c-0.058,1.188,0.959,2.304,2.14,2.327c0.014,0.021,0.037,0.034,0.054,0.048
			c0.51,0.396,1.06,0.605,1.71,0.604C236.397,337.672,237.106,336.315,236.596,335.042z"/>
		<path fill="#333333" d="M282.979,165.26c-0.499,0.083-1.072,0.205-1.546,0c-1.146-0.512-1.936,1.324-0.898,1.947
			c0.932,0.57,1.935,0.484,2.941,0.199C284.845,167.021,284.378,165.015,282.979,165.26z"/>
		<path fill="#333333" d="M254.964,165.048c-0.657,0.194-1.312,0.391-1.981,0.583c-1.563,0.462-1.037,2.739,0.573,2.468
			c0.674-0.108,1.358-0.219,2.028-0.335C257.361,167.473,256.688,164.54,254.964,165.048z"/>
		<path fill="#333333" d="M220.892,173.73l-0.31,0.15c-1.448,0.073-1.003,2.497,0.538,2.019c0.617-0.193,0.878-0.549,1.144-1.112
			C222.661,173.959,221.585,173.203,220.892,173.73z"/>
		<path fill="#D1D5E8" d="M319.104,265.662c-0.707,0.527-1.294,1.135-1.864,1.758c1.848-4.46,3.672-10.812,1.707-14.786
			c-0.536-1.086-2.389-1.365-2.841-0.01c-1.163,3.542,0,7.321-1.026,10.893c-0.644,2.207-1.378,4.434-2.801,6.271
			c-0.441,0.57-1.347,1.466-2.356,2.203c-0.631,0.128-1.285,0.231-1.948,0.314c-5.154,0.661-9.914,1.839-14.965,3.136
			c-4.829,1.234-9.403,3.257-14.215,4.42c-2.798,0.678-5.205,1.413-8.126,1.054c-2.123-0.255-4.055-0.376-6.178-0.201
			c-4.464,0.342-8.775,0.526-13.237,1.312c-4.872,0.868-9.526,2.455-14.349,3.511c-3.502,0.769-6.936,1.637-10.43,2.294
			c-3.613-1.046-7.361-1.817-10.963-2.771c-2.831-0.751-5.43-2.18-7.86-3.92c-0.22-0.157-0.44-0.315-0.658-0.473
			c-2.417-1.808-4.661-3.88-6.781-5.843c-9.014-8.37-15.979-18.203-23.579-27.791c-7.816-9.865-14.961-20.477-18.914-32.466
			c-1.851-5.587-2.666-11.573-4.39-17.204c-0.896-2.924-1.604-5.953-2.382-8.915c-0.218-0.857-0.483-1.776-0.708-2.727
			c-0.268-2.516,0.131-5.046,3.166-4.137c0.259,0.074,0.517,0.055,0.728-0.034c1.603,0.939,3.019,2.208,4.743,2.863
			c0.465,0.468,0.905,0.957,1.301,1.502c1.218,1.662,1.546,5.096,3.981,5.344c0.604,0.062,1.181-0.431,1.086-1.068
			c-0.335-2.163-2.144-4.747-3.484-6.467c-0.284-0.363-0.591-0.691-0.919-1.004c-0.007-0.014-0.007-0.031-0.023-0.049
			c-1.398-2.304-4.242-3.742-6.979-4.232c-0.043-0.028-0.087-0.052-0.131-0.077c-0.242-0.142-0.49-0.133-0.688-0.042
			c-0.217-0.022-0.432-0.061-0.64-0.074c-0.449-0.29-0.906-0.528-1.398-0.669c-0.282-0.323-0.73-0.486-1.208-0.475
			c-0.865,0.022-1.74,0.333-2.313,0.993c-0.258,0.285-0.328,0.681-0.265,1.04c-0.439,0.773-0.691,1.699-0.895,2.505
			c-1.58,6.344,0.386,13.753,0.747,20.184c0.413,7.357,2.798,14.581,3.803,21.835c1.014,7.348,6.231,14.847,10.001,21.063
			c8.31,13.717,18.662,26.581,31.144,36.729c3.274,2.663,6.842,4.957,10.186,7.539c2.934,2.257,5.694,4.427,9.246,5.645
			c0.889,0.309,1.823,0.674,2.786,1.016c-0.522,0.715-0.609,1.812,0.245,2.418c1.301,0.929,2.985,1.902,4.702,2.33
			c-0.098,3.274-1.167,6.521-1.463,9.975c-0.298,3.544,0.573,7.566,2.29,10.883c0.162,0.728,0.44,1.425,0.826,2.075
			c-0.165,1.247-0.533,2.432-0.318,3.749c0.097,0.631,0.624,1.321,1.327,1.35c3.186,0.12,6.034-0.853,8.786-2.343
			c1.241-0.312,2.371-0.79,3.217-1.4c2.177-0.785,4.27-1.57,4.856-4.307c0.305-1.433-0.671-3.736-0.869-5.15
			c-0.459-3.341-0.854-6.657-0.751-10.034c0.088-2.791,0.922-5.198,1.976-7.539c0.566-0.979,1.13-1.959,1.502-3.039
			c2.173-0.992,4.41-1.871,6.624-2.753c5.74-1.233,11.492-2.384,17.405-2.994c4.97-0.511,9.672-0.315,14.52-1.751
			c5.993-1.765,11.647-4.132,17.747-5.587c2.976-0.708,5.856-1.805,8.902-2.144c2.909-0.318,5.66-0.613,8.473-1.432
			c4.187-1.214,8.73-5.275,9.623-9.544C324.384,265.776,321.077,264.194,319.104,265.662z"/>
		<path fill="#333333" d="M333.565,289.001c-1.264-3.29-2.573-6.285-4.315-9.152c0.224-2.488-0.604-4.803-3.184-6.433
			c-0.777-0.482-1.597-0.805-2.429-1.013c0-0.562-0.106-1.141-0.291-1.703c-0.389-5.266-1.01-10.461-0.989-15.748
			c0.04-5.953,0.929-13.441-1.684-18.901c-0.044-0.111-0.137-0.198-0.201-0.296c-0.446-3.326-0.869-6.649-1.229-9.98
			c-0.095,0.048-0.199,0.081-0.296,0.121c-0.346-4.486-1.02-8.987-1.416-13.444c-0.594-6.75-1.14-13.793-2.733-20.38
			c-1.284-5.332-1.676-11.486-4.325-16.315c-1.415-2.572-2.888-4.633-4.568-6.509c-1.927-4.149-6.575-7.886-9.812-10.422
			c-5.106-3.99-10.007-0.979-15.437-0.903c-0.181-0.417-0.467-0.805-0.912-1.093c-3.894-2.522-9.966-4.234-14.642-4.193
			c-2.053,0.016-4.064,2.14-5.617,3.179c-1.897,1.269-4.893,1.901-7.652,1.879c-0.007,0.194-0.044,0.379-0.061,0.562
			c-2.243-0.675-3.951-1.619-5.843-4.082c-2.024-2.641-3.088-5.858-5.137-8.503c-4.102-5.309-12.073-4.516-17.835-4.071
			c-0.492,0.042-0.905,0.329-1.201,0.711c-0.11,0.035-0.231,0.074-0.338,0.142c-0.242,0.025-0.482,0.042-0.721,0.138
			c-1.1,0.438-1.693,1.144-2.529,1.93c-0.845,0.791-0.855,1.75-0.439,2.463c-1.116,1.794-1.908,3.706-2.478,6.375
			c-0.386,1.725-0.369,4.339,0.104,6.363c-3.398-7.986-6.439-16.246-10.37-23.964c-4.99-9.805-10.423-19.723-16.617-28.98
			c-1.069-2.074-2.308-4.006-3.807-5.517c-0.153-0.222-0.294-0.45-0.46-0.661c-0.361-0.508-0.825-0.741-1.283-0.802
			c-2.19-1.464-4.873-2.063-8.317-1.135c-15.711,4.222-9.773,20.426-3.243,33.424c-0.033,0.306-0.026,0.615,0.085,0.937
			c2.22,6.512,4.134,13.824,7.311,19.89c1.683,3.209,2.766,5.785,3.242,9.352c0.087,0.627,0.27,1.214,0.449,1.787
			c-0.06-0.001-0.138-0.001-0.207-0.001c0.429,1.45,0.845,2.898,1.18,4.379c1.928,8.615,3.421,17.312,5.215,25.952
			c0.705,3.369,5.363,22.417,0.976,26.495c-0.208-0.771-0.781-1.415-1.82-1.613c-5.155-0.962-7.438-6.703-10.275-10.58
			c-1.446-1.988-2.951-4.055-4.491-6.094c-3.45-11.163-5.252-24.479-17.354-28.807c-4.239-1.521-11.294-1.254-13.824,3.246
			c-1.881,3.369-1.106,7.582,0.346,11.573c1.052,12.915,2.689,25.695,6.237,37.798c-0.026,0.117-0.097,0.215-0.067,0.375
			c0.544,2.546,1.506,5.111,3.424,6.923c0.483,0.459,0.044,1.572,0.51,2.122c0.516,0.604,1.103,1.141,1.67,1.7
			c6.164,12.976,14.79,25.843,23.961,35.351c4.588,4.735,10.136,8.428,15.424,12.401c0.184,0.064,0.349,0.161,0.536,0.222
			c2.022,2.388,4.263,4.467,6.938,6.224c2.02,1.329,3.917,2.972,5.89,4.474c0.59,0.638,1.186,1.269,1.84,1.849
			c1.439,1.298,3.209,2.962,5.178,4.007c-0.409,0.704-0.737,1.489-0.948,2.396c-0.554,2.458-0.376,5.205,0.358,7.8
			c0.379,1.893,0.943,3.726,1.722,5.5c1.341,3.045,1.472,6.358,3.024,9.322c1.426,2.764,5.211,1.839,5.245-1.267
			c0.027-2.12,1.612-4.547-2.405-6.144l-0.007-0.034c-0.106-0.832,0.584-1.754,0.333-2.556c0.027-0.235,0.57-0.536,0.529-0.768
			c-0.003-0.078,0.23-0.205,0.215-0.281c-0.111-0.067-0.061-0.205-0.158-0.279c-0.436-1.341-0.785-2.689-1.137-4.048
			c-0.503-1.918-0.131-3.954,0.027-5.948c0.057-0.064,0.109-0.154,0.178-0.219c0.979-1.17,2.133-1.844,3.367-2.173
			c4.004-2.301,8.542-5.299,12.907-6.396c5.581-1.398,11.846-2.119,17.576-2.139c4.923-0.024,9.837,0.277,14.571-1.306
			c5.151-1.724,10.085-4.521,15.608-4.876c5.212-0.328,9.42-1.898,14.44-3.179c5.249-1.335,10.751-1.798,15.855-3.662
			c2.834-1.05,5.648-2.354,7.526-1.617c1.786,4.267,2.267,8.71,3.997,13.05c0.758,1.877,1.576,3.719,2.484,5.536
			c1.171,2.314,3.891,3.931,5.296,6.197c2.096,3.414,7.149,1.281,6.67-2.395C340.255,297.549,335.41,293.779,333.565,289.001z
			 M313.416,227.78c0.416,4.414,0.961,8.807,1.647,13.173c0.104,0.665,0.164,1.355,0.252,2.025
			c-0.111,3.488,0.215,7.02,0.312,10.497c0.111,4.021,0.604,7.714,1.269,11.416c-0.122,0.023-0.235,0.04-0.354,0.067
			c0.162,0.751,0.363,1.495,0.634,2.217c0.044,0.116,0.141,0.19,0.208,0.298c0.307,1.604,0.635,3.246,0.977,4.91
			c-3.488,0.59-7.072,2.021-10.111,2.578c-3.71,0.675-7.543,1.057-11.157,2.113c-4.021,1.184-7.757,2.532-11.973,2.881
			c-6.714,0.554-11.788,3.213-18.112,5.023c-7.184,2.072-15.396,1.11-22.839,2.109c-6.492,0.872-13.242,2.213-18.444,6.372
			c-2.062,1.64-4.47,2.739-6.676,3.943c-0.984-0.821-2.207-1.422-3.364-2.129c-0.818-0.496-1.606-1.03-2.375-1.576
			c-8.334-8.243-18.092-15.675-27.167-22.645c-15.443-11.882-21.835-34.176-33.563-49.472c-0.131-0.181-0.302-0.288-0.457-0.416
			c-0.054-0.278-0.137-0.57-0.181-0.845c-1.664-9.518-1.047-19.887-4.131-29.087c0.118-2.866,0.319-5.785-0.181-8.365
			c-0.708-3.726,3.068-4.286,6.502-3.948c3.998,0.397,6.687,4.833,8.169,7.943c2.391,5.034,4.477,10.163,5.832,15.602
			c0.828,3.361,1.184,5.766,3.736,8.029c0.037,0.289,0.106,0.573,0.134,0.879c3.726,5.5,7.436,13.233,14.735,13.297
			c0.066,0,0.127-0.014,0.182-0.017c3.474,1.656,7.625-0.107,8.571-4.427c1.704-7.814-0.094-15.494-1.386-23.251
			c-1.506-9.152-3.356-18.401-5.376-27.459c0.934-5.399-1.079-11.838-2.967-16.849c-1.184-3.176-3.452-5.958-4.723-9.172
			c-0.802-2.012-1.652-4.071-2.578-6.09c-0.982-2.926-2.173-5.808-3.112-8.699c-1.218-3.759-2.863-7.29-3.357-11.247
			c-0.026-1.048-0.197-2.064-0.492-3.057c-2.683-6.934,5.402-13.986,11.605-6.631c1.023,1.226,2.006,2.494,2.969,3.774
			c5.876,9.85,11.077,20.306,16.125,30.414c3.034,6.079,6.549,11.927,9.825,17.88c2.192,3.988,1.915,8.469,5.219,11.675
			c1.012,0.997,2.659-0.036,2.764-1.264c0.301-0.338,0.499-0.812,0.489-1.415c-0.044-1.824-0.474-3.646-0.222-5.45
			c0.335-2.307-0.952-4.417-1.16-6.688c-0.238-2.526,0.416-5.003,1.311-7.333c0.511-1.341,1.463-2.364,2.228-3.507
			c0.08-0.047,0.15-0.099,0.233-0.149c1.959,1.353,3.867,0.944,6.732,1.182c5.298,0.439,7.253,6.53,9.668,10.37
			c3.886,6.188,8.869,7.408,15.644,6.328c0.43-0.068,0.759-0.239,1.044-0.44c1.606-0.27,3.227-0.742,4.842-1.422
			c2.58-1.087,4.182-3.081,7.049-2.24c2.664,0.789,5.457,1.558,8.237,1.89c0.208,0.151,0.457,0.281,0.762,0.367
			c4.061,1.136,8.45,1.421,12.611,1.07c2.691-0.22,5.961,4.293,7.576,6c1.405,1.486,2.569,3.132,3.995,4.541
			c4.604,8.348,6.908,17.914,7.576,27.55c0.57,8.219,2.062,18.391,4.966,26.842C313.527,227.754,313.478,227.774,313.416,227.78z"/>
		<path fill="#333333" d="M187.158,111.993c-1.761,0.683-3.539,1.425-5.296,2.178c-0.862,0.367-1.673,0.694-2.485,1.144
			c-0.849,0.466-1.801,1.657-2.452,0.56c-0.959-1.638-1.26-3.708-0.74-5.512c0.896-3.122,4.745-3.933,7.274-2.526
			c0.656,0.366,1.169-0.562,0.575-0.981c-2.353-1.672-5.358-1.687-7.585,0.317c-2.196,1.975-2.63,4.86-1.73,7.59
			c0.672,2.041,1.604,4.145,3.974,2.908c1.901-0.996,3.72-1.977,5.792-2.634c1.456-0.463,2.995-0.641,3.427-2.291
			C188.02,112.33,187.61,111.813,187.158,111.993z"/>
		<path fill="#333333" d="M152.544,191.61c-0.275-3.521-1.837-7.359-5.929-7.143c-0.929,0.051-0.913,1.361,0,1.43
			c3.659,0.273,3.703,3.922,4.162,6.674c0.286,1.695,0.265,3.124-1.613,3.642c-0.751,0.207-1.22,0.503-1.67,1.124
			c-0.543,0.758,0.503,1.724,1.248,1.253c1.154-0.734,2.509-0.938,3.518-1.884C153.484,195.569,152.655,192.999,152.544,191.61z"/>
	</g>
	<path fill="#333333" d="M167.237,89.613c-0.269-0.189-0.405-0.729-0.534-1.021c-0.201-0.508-0.509-0.929-0.768-1.412
		c-0.69-1.319-1.227-2.658-2.106-3.877c-0.861-1.196-3.004-0.521-2.512,1.062c0.521,1.668,1.389,3.632,2.597,4.935
		c0.812,0.883,1.277,1.91,2.471,2.332C167.644,92.071,168.224,90.283,167.237,89.613z"/>
	<path fill="#333333" d="M183.579,80.46c-1.113,2.539-1.717,5.101-2.253,7.804c-0.222,1.11,1.382,1.957,1.935,0.814
		c1.171-2.433,2.052-4.953,3.055-7.46C186.952,80.042,184.254,78.911,183.579,80.46z"/>
	<path fill="#333333" d="M201.8,96.96c-1.638-0.15-2.888,0.371-4.357,1.03c-1.206,0.54-2.544,1.214-3.457,2.197
		c-0.778,0.836,0.241,2.321,1.269,1.64c0.962-0.655,2.216-0.812,3.309-1.19c1.322-0.455,2.576-0.842,3.831-1.467
		C203.544,98.594,202.869,97.059,201.8,96.96z"/>
	<path fill="#333333" d="M202.285,117.484c-1.341-0.517-2.615-1.147-3.877-1.836c-0.898-0.492-1.639,0.807-0.802,1.362
		c1.34,0.884,2.666,1.725,4.196,2.209C202.933,119.577,203.353,117.895,202.285,117.484z"/>
	<path fill="#333333" d="M156.627,100.485c-2.14-0.932-4.256-1.856-6.386-2.839c-1.71-0.787-2.974,1.405-1.465,2.51
		c1.033,0.751,2.079,1.261,3.27,1.707c1.352,0.509,2.629,0.476,4.034,0.652C157.133,102.649,157.593,100.911,156.627,100.485z"/>
	<path fill="#333333" d="M154.46,117.317c-2.283,0.966-4.598,1.908-6.489,3.538c-0.808,0.691,0.047,2.277,1.073,1.846
		c2.283-0.954,4.39-2.255,6.631-3.313C157.089,118.711,155.849,116.733,154.46,117.317z"/>
	<path fill="#333333" d="M163.555,130.085c-0.503,0.958-1.283,1.78-1.841,2.718c-0.688,1.127-1.215,2.316-1.644,3.558
		c-0.701,1.982,2.448,2.828,3.13,0.864c0.733-2.109,2.089-4.024,2.699-6.155C166.294,129.688,164.245,128.792,163.555,130.085z"/>
</g>
</svg>
