<?xml version="1.0" encoding="utf-8"?>
<!-- Generator: Adobe Illustrator 16.0.0, SVG Export Plug-In . SVG Version: 6.00 Build 0)  -->
<!DOCTYPE svg PUBLIC "-//W3C//DTD SVG 1.1//EN" "http://www.w3.org/Graphics/SVG/1.1/DTD/svg11.dtd">
<svg version="1.1" id="Layer_1" xmlns="http://www.w3.org/2000/svg" xmlns:xlink="http://www.w3.org/1999/xlink" x="0px" y="0px"
	 width="347.25px" height="98px" viewBox="43.5 37 347.25 98" enable-background="new 43.5 37 347.25 98" xml:space="preserve">
<g id="Layer_1_1_">
	<g opacity="0.1">
		<polygon points="76.116,39.021 46.486,58.367 66.974,74.773 96.849,56.326 		"/>
		<polygon points="46.486,91.18 76.116,110.525 96.849,93.221 66.974,74.773 		"/>
		<polygon points="96.849,93.221 117.582,110.525 147.211,91.18 126.724,74.773 		"/>
		<polygon points="147.211,58.367 117.582,39.021 96.849,56.326 126.724,74.773 		"/>
		<polygon points="96.909,96.943 76.116,114.198 67.219,108.389 67.219,114.9 96.909,132.707 126.601,114.9 126.601,108.389 
			117.704,114.198 		"/>
	</g>
</g>
<g id="Layer_2">
	<g opacity="0.1">
		<path d="M162.297,110.491h13.698c3.992,0,9.628,0,14.248-3.595c5.637-4.295,8.533-13.045,8.533-22.813
			c0-25.625-16.206-25.704-24.19-25.704h-12.289V110.491z M173.727,67.365h1.955c4.619,0,10.961,0.547,10.961,16.562
			c0,17.032-6.419,17.58-10.961,17.58h-1.955V67.365z"/>
		<path d="M202.712,71.974v38.517h10.723v-16.64c0-2.971,0-11.876,7.905-11.876c0.393,0,0.861,0,1.799,0.156V71.662
			c-0.546-0.156-1.092-0.235-1.878-0.235c-6.261,0-8.14,6.564-9.079,9.845v-9.297L202.712,71.974L202.712,71.974z"/>
		<path d="M240.333,71.114c-11.506,0-15.731,8.048-15.731,20.079c0,12.423,4.537,20.078,15.654,20.078
			c11.271,0,15.734-7.732,15.734-20.078C255.99,79.162,251.764,71.114,240.333,71.114z M240.333,78.615
			c3.29,0,4.541,2.656,4.541,12.578c0,10.313-1.409,12.58-4.541,12.58c-3.209,0-4.617-2.344-4.617-12.58
			c0-9.452,1.097-12.578,4.54-12.578H240.333z"/>
		<path d="M259.171,71.974v51.565h10.567V107.68c1.175,1.25,3.132,3.357,7.359,3.357c12.288,0,13.072-14.844,13.072-20.312
			c0-6.483-1.252-12.5-5.011-16.329c-1.877-1.875-4.774-2.97-7.357-2.97c-5.245,0-7.358,3.828-8.69,6.329v-5.781H259.171z
			 M269.739,87.443c0-3.438,0-8.905,4.853-8.905c4.149,0,4.463,5.39,4.463,12.187c0,8.127-0.391,12.892-4.775,12.892
			c-4.539,0-4.539-3.282-4.539-8.829L269.739,87.443L269.739,87.443z"/>
		<path d="M293.363,58.379v52.112h6.342c0.859-2.734,1.253-3.515,2.036-5c0.938,1.952,2.739,5.78,8.925,5.78
			c2.035,0,4.148-0.39,6.262-1.482c7.047-3.672,7.516-15.234,7.516-18.83c0-9.296-2.975-19.533-12.448-19.533
			c-4.617,0-6.729,2.501-8.062,4.143v-17.19H293.363z M303.932,85.568c0-1.952,0-3.905,1.256-5.392
			c0.781-1.015,2.033-1.639,3.442-1.639c3.054,0,4.696,2.578,4.696,12.733c0,9.924-1.485,12.578-4.854,12.578
			c-4.541,0-4.541-4.998-4.541-9.375V85.568L303.932,85.568z"/>
		<path d="M342.872,71.114c-11.509,0-15.735,8.048-15.735,20.079c0,12.423,4.541,20.078,15.656,20.078
			c11.271,0,15.734-7.732,15.734-20.078C358.527,79.162,354.299,71.114,342.872,71.114z M342.872,78.615
			c3.285,0,4.539,2.656,4.539,12.578c0,10.313-1.408,12.58-4.539,12.58c-3.211,0-4.622-2.344-4.622-12.58
			c0-9.452,1.098-12.578,4.543-12.578H342.872z"/>
		<path d="M358.109,71.974l9.943,18.831l-11.429,19.688h9.313l6.498-11.562l5.635,11.562h11.664L378.227,88.93l9.94-16.955h-9.312
			l-4.934,8.906l-4.148-8.906L358.109,71.974L358.109,71.974z"/>
	</g>
	<g display="none">
		
			<line display="inline" fill="none" stroke="#377ABC" stroke-width="0.25" stroke-miterlimit="10" x1="55.692" y1="58.375" x2="402.531" y2="58.375"/>
		
			<line display="inline" fill="none" stroke="#377ABC" stroke-width="0.25" stroke-miterlimit="10" x1="55.692" y1="110.496" x2="402.531" y2="110.496"/>
		
			<line display="inline" fill="none" stroke="#377ABC" stroke-width="0.25" stroke-miterlimit="10" x1="519.969" y1="17.775" x2="519.969" y2="145.54"/>
		
			<line display="inline" fill="none" stroke="#377ABC" stroke-width="0.25" stroke-miterlimit="10" x1="613.85" y1="17.775" x2="613.85" y2="145.54"/>
		
			<line display="inline" fill="none" stroke="#377ABC" stroke-width="0.25" stroke-miterlimit="10" x1="519.969" y1="224.05" x2="519.969" y2="351.815"/>
		
			<line display="inline" fill="none" stroke="#377ABC" stroke-width="0.25" stroke-miterlimit="10" x1="613.85" y1="224.05" x2="613.85" y2="351.815"/>
		
			<line display="inline" fill="none" stroke="#377ABC" stroke-width="0.25" stroke-miterlimit="10" x1="519.969" y1="430.74" x2="519.969" y2="558.505"/>
		
			<line display="inline" fill="none" stroke="#377ABC" stroke-width="0.25" stroke-miterlimit="10" x1="613.85" y1="430.74" x2="613.85" y2="558.505"/>
		
			<line display="inline" fill="none" stroke="#377ABC" stroke-width="0.25" stroke-miterlimit="10" x1="519.969" y1="637.513" x2="519.969" y2="765.277"/>
		
			<line display="inline" fill="none" stroke="#377ABC" stroke-width="0.25" stroke-miterlimit="10" x1="613.85" y1="637.513" x2="613.85" y2="765.277"/>
		
			<line display="inline" fill="none" stroke="#377ABC" stroke-width="0.25" stroke-miterlimit="10" x1="55.692" y1="263.344" x2="402.531" y2="263.344"/>
		
			<line display="inline" fill="none" stroke="#377ABC" stroke-width="0.25" stroke-miterlimit="10" x1="55.692" y1="315.465" x2="402.531" y2="315.465"/>
		
			<line display="inline" fill="none" stroke="#377ABC" stroke-width="0.25" stroke-miterlimit="10" x1="55.692" y1="470.798" x2="402.531" y2="470.798"/>
		
			<line display="inline" fill="none" stroke="#377ABC" stroke-width="0.25" stroke-miterlimit="10" x1="55.692" y1="522.919" x2="402.531" y2="522.919"/>
		
			<line display="inline" fill="none" stroke="#377ABC" stroke-width="0.25" stroke-miterlimit="10" x1="55.692" y1="677.57" x2="402.531" y2="677.57"/>
		
			<line display="inline" fill="none" stroke="#377ABC" stroke-width="0.25" stroke-miterlimit="10" x1="55.692" y1="729.691" x2="402.531" y2="729.691"/>
	</g>
</g>
</svg>
