<?xml version="1.0" encoding="utf-8"?>
<!-- Generator: Adobe Illustrator 16.0.0, SVG Export Plug-In . SVG Version: 6.00 Build 0)  -->
<!DOCTYPE svg PUBLIC "-//W3C//DTD SVG 1.1//EN" "http://www.w3.org/Graphics/SVG/1.1/DTD/svg11.dtd">
<svg version="1.1" id="Layer_1" xmlns="http://www.w3.org/2000/svg" xmlns:xlink="http://www.w3.org/1999/xlink" x="0px" y="0px"
	 width="305.406px" height="103.378px" viewBox="0 0 305.406 103.378" enable-background="new 0 0 305.406 103.378"
	 xml:space="preserve">
<g opacity="0.1">
	<path d="M117.953,77.865v-27.48c0-1.938-1.42-2.773-3.095-2.773c-3.356,0-7.549,0.836-11.355,2.514v27.74h-7.74V26.84h7.74v16.834
		c3.679-1.354,8.064-2.514,12.451-2.514c7.031,0,9.676,4.322,9.676,10.254v26.451H117.953L117.953,77.865z M140.077,61.223
		c0.258,9.225,2.064,11.031,7.739,11.031c4.451,0,9.483-1.484,13.354-2.969l1.29,5.805c-4.129,1.873-9.16,3.678-15.158,3.678
		c-12.903,0-14.904-7.094-14.904-18.385c0-6.191,0.453-11.805,1.937-16.965c3.87-1.484,9.031-2.258,15.545-2.258
		c10.582,0,13.807,5.871,13.807,16.127v3.936H140.077L140.077,61.223z M149.879,47.611c-2.319,0-5.998,0.064-9.029,0.643
		c-0.321,1.549-0.71,3.678-0.839,7.613h16.127C156.138,50.512,155.17,47.611,149.879,47.611L149.879,47.611z M178.197,50.125v27.74
		h-7.741V46.643c6.516-3.547,13.418-4.645,17.935-4.967v6.451C185.229,48.385,181.228,48.771,178.197,50.125L178.197,50.125z
		 M208.837,78.768c-11.549,0-16.773-5.676-16.773-18.643c0-13.74,6.902-18.965,16.773-18.965c11.546,0,16.771,5.676,16.771,18.643
		C225.609,73.543,218.706,78.768,208.837,78.768L208.837,78.768z M208.837,47.611c-5.936,0-9.225,3.418-9.225,12.514
		c0,9.936,2.773,12.129,9.225,12.129c5.934,0,9.225-3.355,9.225-12.451C218.062,49.867,215.288,47.611,208.837,47.611
		L208.837,47.611z M262.956,77.865h-9.096c-2.128-5.676-5.097-11.482-9.677-16.514h-4.064v16.514h-7.74V26.84h7.74v29.285h3.613
		c3.935-4.064,6.966-9.094,9.096-14.062h8.708c-2.967,6-6.772,11.289-11.03,15.611C255.602,64.125,259.601,70.963,262.956,77.865
		L262.956,77.865z M277.465,78.768c-7.029,0-9.675-4.32-9.675-10.256V42.062h7.676v27.416c0,1.938,1.418,2.775,3.096,2.775
		c3.354,0,7.935-0.838,11.742-2.516V42.062h7.74v31.094C288.884,78.188,281.852,78.768,277.465,78.768L277.465,78.768z"/>
	<path fill-rule="evenodd" clip-rule="evenodd" d="M70.463,96.756H16.572c-4.609,0-8.346-3.736-8.346-8.346V17.59
		c0-4.609,3.736-8.346,8.346-8.346h53.892c4.609,0,8.347,3.736,8.347,8.346v70.82C78.81,93.02,75.073,96.756,70.463,96.756
		L70.463,96.756z M75.949,18.066c0-3.293-2.67-5.963-5.963-5.963H17.05c-3.294,0-5.962,2.67-5.962,5.963v69.867
		c0,3.293,2.668,5.963,5.962,5.963h52.936c3.293,0,5.963-2.67,5.963-5.963V18.066L75.949,18.066z"/>
	<path d="M52.46,84.715V49.961c0,0,2.26-8.316-27.845,3.402c-0.056,0.148-0.056-32.137-0.056-32.137l9.837-0.061v20.686
		c0,0,27.542-10.848,27.542,8.227c0,19.078,0,34.637,0,34.637H52.46L52.46,84.715z M58.065,33.686c0,0-10.315,0-10.434,0
		c3.756-4.592,7.155-12.459,7.155-12.459h10.788C65.575,21.227,63.728,26.354,58.065,33.686L58.065,33.686z M24.739,84.654V64.863
		l9.896,9.896L24.739,84.654L24.739,84.654z"/>
</g>
</svg>
