<?xml version="1.0" encoding="utf-8"?>
<!-- Generator: Adobe Illustrator 16.0.0, SVG Export Plug-In . SVG Version: 6.00 Build 0)  -->
<svg version="1.2" baseProfile="tiny" id="Layer_1" xmlns="http://www.w3.org/2000/svg" xmlns:xlink="http://www.w3.org/1999/xlink"
	 x="0px" y="0px" width="186.667px" height="340.667px" viewBox="0 0 186.667 340.667" xml:space="preserve">
<g>
	<path fill="#333333" d="M182.277,297.053c0-38.943,1.484-77.896,1.406-116.835l-0.116-62.205
		c-0.045-21.189-0.601-55.781-1.726-76.947c-0.018-0.17-0.646-0.328-0.682-0.479c0.182-9.186-1.011-18.146-6.252-26.259
		c-2.271-3.511-5.582-6.351-9.225-8.363c-2.412-1.322-5.885-2.604-8.947-2.513c-0.34-0.173-0.773-0.276-1.252-0.266
		c-21.408-0.468-42.888-0.14-64.302-0.041C80.404,3.182,69.625,3.234,58.846,3.279c-5.415,0.025-10.84,0.091-16.261,0.149
		C36.979,3.485,31.37,3.252,25.871,4.514c-0.634,0.143-0.981,0.655-1.062,1.204C18.75,7.795,13.141,12.144,9.602,16.772
		c-3.335,4.351-4.755,9.99-5.473,15.314c-0.177,1.336-0.096,2.733-0.238,4.169c-0.15,0.291,0.027,0.641,0.027,1.037
		c0,0.583,0.007,1.164,0.01,1.747c0,2.202-0.428,4.43-0.262,6.576L3.7,174.498c0.034,20.724-0.007,41.443,0.034,62.168
		c0.044,20.914-0.474,41.92,0.326,62.832c-0.677,9.791,0.646,19.256,7.607,27.215c6.827,7.799,18.685,12.156,28.892,10.291
		c0.616-0.115,0.991-0.477,1.191-0.934c17.208,0.504,34.45,0.465,51.662,0.668c9.625,0.107,19.248,0.074,28.873,0.096
		c4.799,0.006,9.604,0.016,14.402,0.025c3.458,0.008,7.398,0.309,10.9-0.461c9.359,1.064,20.619-2.326,26.871-8.779
		C182.121,319.73,184.33,307.482,182.277,297.053z M176.514,41.074c-1.038,20.629-0.319,54.669-0.279,75.323l0.108,62.19
		c0.093,41.969,0.578,83.927,0.689,125.886c0,0.392,0.088,0.714,0.244,0.993c-0.334,6.535-1.801,12.953-6.004,18.174
		c-3.162,3.932-7.697,6.324-12.484,7.68c-2.498,0.707-5.287,1.439-8.1,1.879c-0.188-0.238-0.441-0.449-0.79-0.594
		c-3.991-1.609-8.976-1.146-13.222-1.123c-4.801,0.027-9.6,0.055-14.404,0.078c-9.621,0.059-19.253,0.064-28.878,0.215
		c-19.41,0.301-38.884,0.297-58.288,1.109c-0.316-0.01-0.578,0.062-0.796,0.197c-7.494-0.734-14.229-3.41-19.764-9.268
		c-5.564-5.887-6.844-13.455-7.58-21.141c0.78-0.252,1.423-0.907,1.461-1.993c0.762-20.763,0.19-41.618,0.16-62.39
		c-0.047-20.725-0.099-41.446-0.153-62.168l0.35-132.338c0.01-0.914,0.64-1.833,0.64-2.749c0-0.879-0.006-1.768-0.006-2.653
		c-0.007-0.468-0.623-0.933-0.606-1.392c0.228-4.932,0.661-9.891,2.716-14.414c2.777-6.081,10.034-12.297,17.539-14.552
		c9.168,1.454,19.062,0.538,28.238,0.542c10.785,0.001,21.52,0.01,32.302,0.019c21.949,0.005,43.929,0.267,65.871-0.293
		c0.14,0,0.251-0.019,0.377-0.036c2.386,0.662,5.045,0.827,7.308,1.79c3.522,1.494,6.313,4.19,8.488,7.286
		c4.366,6.213,5.707,14.131,6.346,21.829C177.214,39.366,176.559,40.002,176.514,41.074z"/>
	<path fill="#333333" d="M75.333,36.837c11.292-0.022,22.588-0.049,33.875-0.071c1.998,0,2.994-1.553,2.994-3.107
		c0-0.177-0.066-0.342-0.089-0.522c0.021-0.175,0.089-0.345,0.089-0.524c-0.014-1.55-1.007-2.97-3.009-2.965
		c-6.067,0.009-12.124,0.15-18.188,0.15c-0.834,0-1.671,0-2.505,0c-4.394,0-8.781,0.153-13.178,0.158
		c-2.005,0.008-2.996,1.37-2.996,2.924c0,0.178,0.055,0.253,0.082,0.432c-0.027,0.17-0.082,0.295-0.082,0.47
		C72.331,35.338,73.328,36.844,75.333,36.837z"/>
	<path fill="#333333" d="M172.522,89.28c-0.013-9.735,0.66-33.272-0.534-42.961c0.116-0.219,0.081-0.478,0.081-0.735
		c-0.01-0.711-0.517-1.424-1.425-1.414c-19.902-0.057-39.816-0.15-59.721-0.131c-23.086-0.147-46.192-0.255-69.274,0.153
		c-9.118-0.084-18.273-0.145-27.337,0.516c-0.156-0.053-0.323-0.039-0.466,0.034c-0.113,0.008-0.225,0.01-0.337,0.019
		c-1.389,0.105-1.429,1.966-0.153,2.208c-1.405,18.475-0.919,50.32-0.885,68.827c0.038,19.623,0.071,39.235,0.105,58.853
		c0.034,19.58,0.065,39.163,0.105,58.737c0.038,19.145-0.412,38.396,0.429,57.515c0.017,0.396,0.16,0.708,0.368,0.94
		c-0.017,0.074-0.031,0.168-0.031,0.259c0,0.563,0.368,1.136,1.11,1.136c26.275,0.044,52.557,0.208,78.838,0.145
		c13.144-0.039,26.288-0.065,39.423-0.123c6.564-0.026,13.141-0.062,19.709-0.088c5.991-0.028,12.283,0.522,18.188-0.383
		c0.354-0.054,0.564-0.3,0.672-0.592c0.412-0.115,0.744-0.449,0.736-1.008c0.521-38.714,0.426-77.445,0.349-116.167
		c-0.027-19.051,0.14-38.088,0.104-57.13C172.552,108.351,172.533,98.816,172.522,89.28z M152.523,290.484
		c-6.572-0.003-13.146-0.003-19.709-0.007c-13.141-0.011-26.206,0.017-39.347,0.038c-25.806,0.04-51.549,0.311-77.324,0.445
		c0-0.021,0-0.033,0-0.049c-0.048-18.615,0.181-37.199,0.14-55.748c-0.037-19.572-0.116-39.154-0.157-58.738
		c-0.044-19.615-0.105-39.229-0.149-58.85c-0.034-19.054,0.429-51.464-1.086-70.481c8.598,0.567,17.267,0.478,25.915,0.368
		c23.487,0.332,46.998,0.134,70.506-0.105c19.342-0.062,38.525-0.208,57.869-0.347c-0.971,8.91-0.344,31.562-0.33,40.484
		c0.023,9.543,0.041,19.072,0.062,28.609c0.032,19.642,0.24,39.282,0.277,58.925c0.078,38.552,0.018,77.123,0.688,115.677
		C164.173,289.977,158.246,290.484,152.523,290.484z"/>
	<polygon fill="#333333" points="26.125,55.241 27.456,55.241 27.453,50.974 26.125,50.768 	"/>
	<polygon fill="#333333" points="24.195,56.06 25.513,56.06 25.513,52.44 24.182,52.435 	"/>
	<rect x="22.246" y="52.89" fill="#333333" width="1.324" height="3.529"/>
	<polygon fill="#333333" points="20.309,56.06 21.63,56.065 21.63,54.559 20.302,54.557 	"/>
	<polygon fill="#333333" points="18.342,56.065 19.687,56.065 19.672,55.621 18.342,55.626 	"/>
	<path fill="#333333" d="M93.896,52.701c0-1.024-0.255-1.987-1.157-1.987c-0.916,0-1.154,0.698-1.154,1.718v1.635h-2.362v2.979
		l5.881,0.127v-3.31l-1.015,0.009L93.896,52.701z M93.337,53.349l-2.219,0.006v-0.923c0-0.723,0.493-1.322,1.106-1.319
		c0.63-0.003,1.113,0.585,1.113,1.322V53.349z"/>
	<polygon fill="#333333" points="156.591,51.665 156.712,55.621 165.539,55.614 165.539,51.659 	"/>
	<polygon fill="#333333" points="165.044,54.506 165.841,54.506 165.841,52.716 165.059,52.692 	"/>
	<g>
		<path fill="#333333" d="M108.639,312.556c0-0.053-0.034-0.072-0.045-0.113c-0.374-7.439-7.64-15.139-14.927-15.025
			c-0.262,0-0.436,0.14-0.579,0.303c-5.623-1.389-10.384,2.673-12.845,8.074c-0.592,0.941-1.146,1.898-1.613,2.85
			c-3.843,7.838,1.525,16.281,9.23,18.701c4.905,1.537,10.034,0.406,13.985-2.373c0.037-0.023,0.078-0.059,0.123-0.086
			c0.228-0.16,0.445-0.34,0.664-0.514c1.596-1.201,2.978-2.719,4.002-4.588c0.8-1.371,1.408-2.852,1.742-4.441
			c0.178-0.803,0.229-1.623,0.218-2.449C108.605,312.777,108.632,312.675,108.639,312.556z M106.274,313.351
			c0.634,6.58-4.942,10.27-10.558,11.639c-3.263,0.455-6.81-0.104-10.005-1.758c-4.942-2.568-6.535-8.998-4.786-13.871
			c1.14-3.197,3.733-7.318,7.137-9.234c1.621-0.748,3.428-1.092,5.412-0.851C100.542,300.998,105.542,305.847,106.274,313.351z"/>
		<path fill="#333333" d="M99.559,315.677c-0.067-1.479,0.019-2.949-0.218-4.412c-0.242-1.523-0.051-4.52-2.318-4.574
			c-1.402-0.039-2.777,0.182-4.179,0.139c-0.691-0.021-1.348,0.035-1.981,0.188c-0.061-0.014-0.095-0.066-0.17-0.07
			c-1.593-0.092-3.223-0.059-4.037,1.518c-0.483,0.924-0.249,2.039-0.143,3.012c0.157,1.533,0.027,3.125,0.021,4.656
			c-0.003,1.219,0.354,2.635,1.661,3.043c2.11,0.668,5.003,0.475,7.172,0.211c1.381,0.102,3.416,0.201,3.979-1.09
			C99.726,317.419,99.606,316.623,99.559,315.677z M95.666,318.126c-0.071-0.029-0.115-0.088-0.205-0.102
			c-1.547-0.186-6.827,0.799-7.389-1.068c-0.408-1.369-0.095-3.281-0.102-4.701c-0.011-0.744-0.133-1.494-0.205-2.234
			c-0.115-1.273,0.746-1.672,1.654-1.824c0.143,0.201,0.402,0.334,0.674,0.189c1.623-0.785,3.339-0.168,5.038-0.285
			c0.804-0.059,2.179-0.566,2.58,0.707c0.193,0.605,0.108,1.467,0.238,2.109c0.375,1.717,0.178,3.484,0.313,5.215
			C98.405,318.08,97.098,318.203,95.666,318.126z"/>
	</g>
</g>
<path fill="#28A0E5" d="M139.417,142.208c-2.315,0-2.074,2.846-2.171,5.885h3.859C141.106,144.668,141.106,142.208,139.417,142.208z
	 M137.247,153.062c0,2.749,1.351,3.279,3.618,3.279c2.604,0,6.126-0.771,7.477-1.012v6.656c-1.061,0.387-4.293,1.302-7.477,1.302
	c-5.74,0-12.734-0.916-12.734-13.167c0-10.807,5.499-13.362,11.286-13.362c5.935,0,10.228,3.039,10.228,13.265v3.039H137.247z
	 M114.621,143.511c-0.531,0-1.593,0.434-2.171,0.771v12.349c0.434,0.145,1.205,0.24,1.543,0.24c1.592,0,2.557-1.35,2.557-6.993
	C116.549,144.138,116.116,143.511,114.621,143.511z M115.681,163.288c-1.158,0-2.363-0.338-3.231-0.53v9.213h-9.166v-34.73h7.429
	l1.351,1.592c1.398-1.254,3.377-2.073,5.451-2.073c3.762,0,8.199,1.061,8.199,13.12
	C125.713,163.095,119.058,163.288,115.681,163.288z M94.84,134.105c-2.556,0-4.533-2.074-4.533-4.584
	c0-2.507,1.978-4.582,4.533-4.582c2.558,0,4.536,2.075,4.536,4.582C99.376,132.031,97.398,134.105,94.84,134.105z M90.259,162.806
	V137.24h9.166v25.566H90.259z M84.709,144.427c-1.448,0-2.557,0.579-3.039,0.868v17.511h-9.166V137.24h7.284l1.35,2.461
	c0.531-1.592,1.978-2.943,4.101-2.943c1.447,0,2.412,0.289,2.846,0.53v7.622C87.169,144.668,85.963,144.427,84.709,144.427z
	 M67.293,156.341c0.579,0,2.605-0.289,3.28-0.385v6.512c-1.398,0.338-4.486,0.819-6.512,0.819c-2.604,0-7.477-0.289-7.477-7.379
	v-12.831h-3.376v-5.838h3.376l1.158-5.788l8.007-1.931v7.719h4.824l-1.206,5.838H65.75v11.191
	C65.75,156.003,66.28,156.341,67.293,156.341z M43.606,144.621c0,1.013,0.676,1.351,2.267,2.074l0.965,0.434
	c2.267,1.014,5.402,2.653,5.402,7.477c0,7.719-5.74,8.683-9.841,8.683c-2.653,0-5.451-0.627-7.332-1.205v-6.608
	c1.64,0.435,4.486,1.108,5.74,1.108c1.398,0,2.459-0.192,2.459-1.446c0-0.965-0.675-1.398-2.17-2.074l-1.159-0.531
	c-2.17-1.013-5.257-2.749-5.257-7.428c0-6.851,5.354-8.345,9.84-8.345c3.377,0,5.596,0.771,6.754,1.206v6.414
	c-1.351-0.434-4.1-1.012-5.74-1.012C44.426,143.367,43.606,143.656,43.606,144.621z"/>
<g id="Page-1">
	<path id="Path-10_1_" fill="#77C63E" d="M91.708,269.412c0,0,7.905-9.509,9.024-9.947
		c1.122-0.439,2.064,0.518,1.277,1.722c-0.788,1.204-8.795,13.013-9.439,13.605s-1.319,0.172-1.753-0.193
		c-0.434-0.364-3.711-5.722-3.978-6.255c-0.266-0.531,0.068-1.568,0.417-1.812c0.348-0.242,1.161-0.191,1.672,0.25
		C89.437,267.221,91.708,269.412,91.708,269.412z"/>
	<path id="Oval-21_1_" fill="#77C63E" d="M102.432,265.041c0.658,1.432,1.024,3.025,1.024,4.704
		c0,6.237-5.057,11.293-11.293,11.293c-6.237,0-11.293-5.056-11.293-11.293c0-6.235,5.056-11.293,11.293-11.293
		c2.053,0,3.979,0.548,5.639,1.508l-1.294,1.349c-1.305-0.67-2.78-1.049-4.345-1.049c-5.239,0-9.487,4.246-9.487,9.485
		s4.248,9.488,9.487,9.488c5.239,0,9.485-4.249,9.485-9.488c0-1.046-0.169-2.054-0.482-2.995L102.432,265.041z"/>
</g>
<path fill="#333333" d="M170.699,246.775c-25.745-0.453-51.518-0.152-77.267-0.162c-26.014-0.009-52.084-0.45-78.088,0.276
	c-0.43,0.014-0.43,0.656,0,0.667c25.73,0.721,51.526,0.287,77.267,0.279c26.022-0.01,52.069,0.296,78.088-0.163
	C171.278,247.662,171.278,246.785,170.699,246.775z"/>
</svg>
