<?xml version="1.0" encoding="utf-8"?>
<!-- Generator: Adobe Illustrator 16.0.0, SVG Export Plug-In . SVG Version: 6.00 Build 0)  -->
<!DOCTYPE svg PUBLIC "-//W3C//DTD SVG 1.1//EN" "http://www.w3.org/Graphics/SVG/1.1/DTD/svg11.dtd">
<svg version="1.1" id="Layer_1" xmlns="http://www.w3.org/2000/svg" xmlns:xlink="http://www.w3.org/1999/xlink" x="0px" y="0px"
	 width="450px" height="220px" viewBox="0 0 450 220" enable-background="new 0 0 450 220" xml:space="preserve">
<linearGradient id="SVGID_1_" gradientUnits="userSpaceOnUse" x1="225.4907" y1="28.6772" x2="225.4907" y2="192.1548">
	<stop  offset="0" style="stop-color:#1A1A1A"/>
	<stop  offset="1" style="stop-color:#000000"/>
</linearGradient>
<path opacity="0.1" fill="url(#SVGID_1_)" d="M389.743,88.703c-8.049,0-7.21,9.893-7.545,20.456h13.413
	C395.611,97.254,395.611,88.703,389.743,88.703z M382.198,126.429c0,9.558,4.694,11.401,12.575,11.401
	c9.054,0,21.293-2.684,25.988-3.521v23.139c-3.688,1.342-14.922,4.527-25.988,4.527c-19.953,0-44.266-3.186-44.266-45.773
	c0-37.558,19.115-46.444,39.235-46.444c20.623,0,35.546,10.563,35.546,46.108v10.563H382.198z M303.549,93.23
	c-1.845,0-5.533,1.509-7.545,2.684v42.922c1.508,0.503,4.191,0.838,5.365,0.838c5.533,0,8.887-4.693,8.887-24.311
	C310.256,95.41,308.746,93.23,303.549,93.23z M307.236,161.975c-4.023,0-8.215-1.174-11.232-1.845v32.024h-31.857V71.433h25.82
	l4.695,5.533c4.861-4.359,11.736-7.209,18.946-7.209c13.078,0,28.504,3.688,28.504,45.606
	C342.112,161.305,318.974,161.975,307.236,161.975z M234.799,60.535c-8.886,0-15.76-7.21-15.76-15.929
	c0-8.719,6.874-15.929,15.76-15.929c8.887,0,15.762,7.21,15.762,15.929C250.561,53.325,243.686,60.535,234.799,60.535z
	 M218.871,160.298V71.433h31.858v88.865H218.871z M199.581,96.416c-5.03,0-8.887,2.012-10.563,3.018v60.864H157.16V71.433h25.318
	l4.695,8.551c1.844-5.533,6.874-10.228,14.252-10.228c5.03,0,8.384,1.006,9.892,1.844v26.491
	C208.131,97.254,203.94,96.416,199.581,96.416z M139.046,137.83c2.012,0,9.054-1.006,11.401-1.341v22.636
	c-4.862,1.173-15.593,2.85-22.635,2.85c-9.054,0-25.989-1.006-25.989-25.652V91.722H90.086V71.433h11.737l4.024-20.12l27.833-6.707
	v26.827h16.767l-4.192,20.289H133.68v38.899C133.68,136.656,135.524,137.83,139.046,137.83z M56.711,97.087
	c0,3.521,2.348,4.694,7.88,7.209l3.354,1.51c7.879,3.521,18.778,9.222,18.778,25.989c0,26.826-19.953,30.18-34.205,30.18
	c-9.222,0-18.946-2.18-25.486-4.191v-22.971c5.701,1.51,15.594,3.855,19.953,3.855c4.862,0,8.551-0.67,8.551-5.029
	c0-3.354-2.347-4.863-7.545-7.21l-4.024-1.845c-7.545-3.521-18.276-9.557-18.276-25.821c0-23.809,18.611-29.006,34.205-29.006
	c11.737,0,19.45,2.682,23.474,4.192v22.3c-4.695-1.509-14.251-3.521-19.952-3.521C59.562,92.728,56.711,93.733,56.711,97.087z"/>
</svg>
