<?xml version="1.0" encoding="utf-8"?>
<!-- Generator: Adobe Illustrator 16.0.0, SVG Export Plug-In . SVG Version: 6.00 Build 0)  -->
<!DOCTYPE svg PUBLIC "-//W3C//DTD SVG 1.1//EN" "http://www.w3.org/Graphics/SVG/1.1/DTD/svg11.dtd">
<svg version="1.1" id="Layer_1" xmlns="http://www.w3.org/2000/svg" xmlns:xlink="http://www.w3.org/1999/xlink" x="0px" y="0px"
	 width="410px" height="320.933px" viewBox="0 0 410 320.933" enable-background="new 0 0 410 320.933" xml:space="preserve">
<g>
	<g display="none">
		<g display="inline">
			<path fill="#999999" d="M318.54,218.577c0.481-5.354,0.277-14.114,0.278-19.485c0.001-5.388,0.001-62.34,0.003-67.728
				c0.001-10.79,0.003-21.582,0.005-32.373c0.003-21.627,0.069-39.711-0.013-61.339c0.031,8.5,1.531-6.24-0.544-26.338
				c-0.06-0.548-0.493-0.792-0.885-0.737c-0.07-0.013-0.14-0.022-0.215-0.023c-21.612-0.591-60.161-0.213-81.782-0.213h-64.824
				c-22.714,0-62.311,0.11-85.022,0.283c-0.152,0.003-0.284,0.031-0.401,0.079c-0.442,0.031-0.863,0.344-0.902,0.938
				c-1.779,28.569-0.218,44.726-0.223,37.554c0.008,10.782,0.019,21.566,0.029,32.348c0.019,21.563-0.129,94.694,0.125,116.258
				c0.068,5.771-0.229,15.036,0.407,20.777c0.003,0.042,0.012,0.083,0.023,0.119c-0.329,0.642-0.017,1.59,0.943,1.641
				c1.238,0.063,2.476,0.113,3.717,0.152c-0.164,0.644,0.113,1.438,0.836,1.553c5.223,0.802,10.641,0.531,15.915,0.569
				c5.406,0.041,27.699,0.024,33.107,0.023c10.803-0.002,21.607-0.006,32.409-0.006c21.572-0.003,43.143-0.007,64.713,0.009
				c18.96,0.01,54.819,0.211,73.771-0.359c1.084-0.033,1.523-0.996,1.327-1.795c2.053-0.025,4.106-0.048,6.158-0.087
				c0.96-0.016,1.307-0.949,1.044-1.63C318.543,218.705,318.547,218.643,318.54,218.577z M267.23,217.042
				c-10.805-0.008-21.61-0.016-32.414-0.022c-21.608-0.011-43.219-0.023-64.828-0.05c-9.485-0.012-73.119-0.205-82.608-0.044
				c0.301-10.634,0.108-76.205,0.108-86.843V97.54c0-19.837,0.011-39.843-0.036-63.396c-0.005-1.884-0.03,7.193-0.06,5.311
				c10.441,0.253,37.777,0.124,48.221,0.128l32.496,0.021c21.643,0.011,43.284-0.004,64.928-0.011
				c11.029-0.005,22.06,0.011,33.09-0.017c10.776-0.025,38.454,0.116,49.227-0.191c0.01,2.352,0.075-4.399,0.06-2.088
				c-0.038,5.417-0.025,7.288-0.032,12.705c-0.014,10.826-0.027,21.654-0.025,32.48l0.003,116.533
				c0,4.901-0.357,13.317,0.118,18.209C305.034,216.843,277.673,217.052,267.23,217.042z M315.353,38.24
				c-10.342-0.296-37.586-0.164-47.929-0.189c-10.813-0.027-21.629-0.014-32.442-0.019c-21.644-0.008-43.285-0.025-64.925-0.015
				l-33.146,0.021c-10.883,0.007-38.663-0.135-49.544,0.131c-0.046-2.336-0.115-22.58-0.211-24.916
				c4.802,0.636,63.974,0.319,68.795,0.34c5.396,0.025,10.792,0.05,16.189,0.072c10.784,0.049,21.57,0.059,32.354,0.084
				c21.565,0.053,43.133,0.026,64.7,0.089c4.965,0.017,26.814,0.017,31.778,0.018c4.897,0.003,9.841,0.195,14.729-0.122
				C315.442,15.908,315.363,36.024,315.353,38.24z"/>
			<path fill="#999999" d="M91.97,14.944c-0.054-0.022-0.107-0.021-0.157-0.01c-0.74-0.428-1.433-0.208-2.075,0.572
				c-0.711,0.867-0.493,2.471,0.46,3.1c1.172,0.773,2.596,0.403,3.201-0.867C93.994,16.491,93.094,15.41,91.97,14.944z
				 M90.766,18.013c-0.538-0.296-0.741-1.173-0.602-1.735c0.082-0.33,0.426-0.687,0.691-0.884c0.242-0.175,0.46-0.19,0.672-0.13
				c-0.013,0.1,0.012,0.199,0.101,0.269c0.516,0.398,1.256,0.636,1.256,1.406C92.886,18.024,91.6,18.468,90.766,18.013z"/>
			<path fill="#999999" d="M97.34,14.944c-0.055-0.022-0.107-0.021-0.158-0.01c-0.738-0.428-1.432-0.208-2.073,0.572
				c-0.712,0.867-0.494,2.471,0.46,3.1c1.172,0.773,2.596,0.403,3.2-0.867C99.364,16.491,98.463,15.41,97.34,14.944z M96.136,18.013
				c-0.537-0.296-0.742-1.173-0.602-1.735c0.081-0.33,0.426-0.687,0.692-0.884c0.241-0.175,0.459-0.19,0.672-0.13
				c-0.013,0.1,0.011,0.199,0.1,0.269c0.515,0.398,1.256,0.636,1.257,1.406C98.256,18.024,96.972,18.468,96.136,18.013z"/>
			<path fill="#999999" d="M102.709,14.944c-0.055-0.022-0.107-0.021-0.158-0.01c-0.739-0.428-1.431-0.208-2.073,0.572
				c-0.713,0.867-0.494,2.471,0.459,3.1c1.173,0.773,2.598,0.403,3.201-0.867C104.733,16.491,103.833,15.41,102.709,14.944z
				 M101.506,18.013c-0.537-0.296-0.742-1.173-0.603-1.735c0.082-0.33,0.425-0.687,0.692-0.884c0.24-0.175,0.459-0.19,0.673-0.13
				c-0.015,0.1,0.01,0.199,0.098,0.269c0.515,0.398,1.257,0.636,1.257,1.406C103.625,18.024,102.341,18.468,101.506,18.013z"/>
			<path fill="#999999" d="M313.51,213.434c-0.351,0.391-0.771,0.712-1.148,1.072c-0.36,0.346-0.685,0.729-1.022,1.099
				c-0.244,0.262,0.131,0.638,0.396,0.395c0.367-0.34,0.728-0.689,1.109-1.011c0.442-0.377,0.95-0.708,1.132-1.282
				C314.057,213.444,313.696,213.224,313.51,213.434z"/>
			<path fill="#999999" d="M312.754,210.944c-0.706,0.662-1.203,1.531-1.961,2.143c-0.797,0.641-1.424,1.496-2.127,2.232
				c-0.333,0.351,0.188,0.875,0.533,0.532c1.417-1.41,2.847-2.793,4.158-4.304C313.715,211.134,313.159,210.562,312.754,210.944z"/>
		</g>
		<path display="inline" fill="#999999" d="M247.049,27.456c-0.402-0.343-0.926-0.505-1.425-0.639
			c-0.258-0.069-0.53-0.093-0.795-0.124c-0.344-0.042-0.88,0.099-0.934-0.065c-0.052-0.164-0.277-0.164-0.331,0
			c-0.019,0.058-0.037,0.119-0.056,0.176c-4.371-0.123-8.747-0.173-13.124-0.187c-9.741-0.121-19.504,0-29.242-0.009
			c-12.876-0.013-17.312-0.013-30.187-0.007c-9.133,0.001-18.267,0-27.399,0.005c-6.472-0.024-12.94-0.038-19.41-0.029
			c-8.814-0.061-17.643-0.158-26.444,0.089c-0.027-0.004-0.053-0.002-0.079,0.001c-0.951,0.028-1.903,0.055-2.854,0.094
			c-0.606-0.217-1.311,0.06-1.901,0.379c-1.146,0.619-1.659,1.341-1.93,2.594c-0.275,1.276,0.015,2.495,1.014,3.344
			c0.399,0.34,0.924,0.505,1.422,0.637c0.259,0.071,0.53,0.093,0.797,0.126c0.342,0.041,0.88-0.102,0.933,0.064
			c0.052,0.165,0.277,0.165,0.33,0c0.018-0.06,0.037-0.118,0.057-0.177c4.371,0.125,8.745,0.174,13.121,0.187
			c9.746,0.121,19.506,0.002,29.245,0.009c12.876,0.013,25.752,0.013,38.628,0.008c9.132-0.001,18.266-0.001,27.4-0.005
			c6.471,0.026,4.498,0.041,10.967,0.029c9.795,0.068,19.607,0.184,29.379-0.182c0.604,0.215,1.31-0.059,1.9-0.381
			c1.145-0.619,1.658-1.342,1.93-2.591C248.338,29.523,248.048,28.304,247.049,27.456z M247.303,30.571
			c-0.202,1.499-1.761,2.783-3.277,2.331c-0.157-0.049-0.29,0.036-0.354,0.155c-10.436-0.37-20.916-0.195-31.368-0.141
			c-3.381-0.001-6.761,0.003-10.14,0.014c-11.374-0.011-14.305-0.006-25.679-0.009c-12.596-0.005-25.193-0.006-37.789,0.005
			c-11.494,0.011-23.019-0.148-34.517,0.091c-3.253,0.034-6.505,0.104-9.755,0.211h-0.001c-1.65-0.43-3.047-0.889-2.727-3.26
			c0.202-1.498,1.76-2.787,3.278-2.333c0.158,0.048,0.291-0.04,0.354-0.16c0.7,0.026,1.4,0.042,2.101,0.061
			c-0.013,0.795-0.022,1.587-0.027,2.382c-0.009,0.962-0.128,1.984,0.073,2.93c0.041,0.194,0.353,0.194,0.395,0
			c0.172-0.817,0.082-1.68,0.076-2.512c-0.007-0.929-0.015-1.857-0.032-2.786c9.552,0.261,19.135,0.117,28.697,0.067
			c3.494,0.001,6.987-0.004,10.482-0.014c11.289,0.009,22.577,0.004,33.866,0.009c12.595,0.003,16.751,0.006,29.346-0.007
			c11.815-0.01,23.661,0.171,35.477-0.099c2.934-0.04,5.865-0.08,8.796-0.186h0.001C246.225,27.75,247.623,28.201,247.303,30.571z"
			/>
		<path display="inline" fill="#999999" d="M311.939,27.456c-0.401-0.343-0.926-0.505-1.423-0.639
			c-0.261-0.069-0.532-0.093-0.799-0.124c-0.341-0.042-0.878,0.099-0.933-0.065c-0.052-0.164-0.278-0.164-0.329,0
			c-0.019,0.058-0.037,0.119-0.057,0.176c-4.371-0.123-8.77-0.173-13.146-0.187c-3.174-0.04-6.169-0.049-9.553-0.049v0.002
			c-8.437-0.06-17.058-0.143-25.577,0.096c-0.026-0.004-0.041-0.002-0.068,0.001c-0.951,0.028-1.896,0.055-2.848,0.094
			c-0.605-0.217-1.308,0.06-1.897,0.379c-1.146,0.619-1.656,1.341-1.928,2.594c-0.277,1.276,0.014,2.495,1.014,3.344
			c0.401,0.34,0.924,0.505,1.422,0.637c0.26,0.071,0.531,0.093,0.797,0.126c0.343,0.041,0.881-0.102,0.933,0.064
			c0.054,0.165,0.279,0.165,0.331,0c0.019-0.06,0.038-0.118,0.056-0.177c4.372,0.125,8.747,0.174,13.123,0.187
			c5.088,0.063,10.18,0.061,15.27,0.045c0.001,0.014,0.001,0.027,0.004,0.04c7.604,0.051,15.21,0.058,22.789-0.227
			c0.606,0.215,1.312-0.059,1.902-0.381c1.146-0.619,1.658-1.342,1.931-2.591C313.228,29.523,312.937,28.304,311.939,27.456z
			 M312.194,30.571c-0.201,1.499-1.76,2.783-3.277,2.331c-0.159-0.049-0.289,0.036-0.354,0.155
			c-7.424-0.262-14.871-0.251-22.317-0.202c0.001,0.011,0.001,0.023,0.001,0.034c-6.541-0.018-13.087-0.015-19.623,0.122
			c-2.089,0.022-4.175,0.062-6.263,0.111c-0.383,0.185-0.81,0.182-1.197,0.04c-0.765,0.019-1.529,0.012-2.293,0.067h-0.001
			c-1.652-0.43-3.05-0.889-2.729-3.26c0.202-1.498,1.759-2.787,3.277-2.333c0.157,0.048,0.289-0.04,0.354-0.16
			c0.699,0.026,1.398,0.042,2.102,0.061c-0.005,0.135-0.005,0.271-0.006,0.406c0.006-0.001,0.009-0.005,0.014-0.008
			c0.152-0.082,0.315-0.13,0.477-0.167c0-0.073,0-0.144-0.003-0.218c8.478,0.232,16.984,0.145,25.473,0.086c0,0.002,0,0.008,0,0.012
			c4.951-0.002,9.9-0.03,14.844-0.142c2.931-0.04,5.863-0.08,8.793-0.186h0.002C311.117,27.75,312.513,28.201,312.194,30.571z"/>
		<path display="inline" fill="#999999" d="M101.4,29.205c-0.003-0.213-0.162-0.324-0.326-0.336
			c-0.042-0.124-0.145-0.221-0.312-0.217c-0.468,0.011-0.936,0.021-1.402,0.033c-0.278,0.005-0.358,0.293-0.25,0.475
			c-0.003,0.016-0.011,0.028-0.011,0.045c-0.006,0.619-0.052,1.255,0.011,1.873c-0.276,0.045-0.266,0.477,0.039,0.484
			c0.327,0.009,0.654,0.017,0.981,0.024c0.274,0.005,0.568,0.049,0.819-0.081c0.048-0.023,0.072-0.066,0.09-0.114
			c0.016-0.014,0.032-0.02,0.047-0.036C101.618,30.75,101.413,29.939,101.4,29.205z M100.243,31.043
			c-0.211,0.004-0.422,0.009-0.632,0.015c0.058-0.577,0.021-1.17,0.011-1.747c0.359,0.009,0.72,0.016,1.081,0.025
			c0.037,0.474,0.197,1.164-0.115,1.52c-0.051,0.058-0.072,0.121-0.083,0.183C100.418,31.039,100.33,31.041,100.243,31.043z"/>
		<path display="inline" fill="#999999" d="M312.307,22.063c-14.033-0.401-28.12-0.061-42.159-0.061c-14.053,0-28.105,0-42.158,0
			c-20.519,0.001-41.039-0.002-61.558,0.007c-0.257-0.129-0.435-0.321-0.561-0.715c-0.152-0.475-0.199-2.668-0.328-3.151
			c-0.162-0.609-0.51-1.053-1-1.236c-0.077-0.134-0.208-0.233-0.411-0.239c-4.146-0.11-8.305-0.008-12.452,0
			c-3.927,0.006-8-0.246-11.917,0.164c-0.051-0.069-0.132-0.122-0.252-0.124c-0.23-0.003-0.47,0.023-0.703,0.083
			c-0.011,0.244-0.021,0.489-0.031,0.732c0.106-0.036,0.216-0.071,0.327-0.094c0.036,0.019,0.078,0.032,0.125,0.037
			c4.079,0.497,8.346,0.212,12.452,0.219c4.147,0.005,8.307,0.109,12.452-0.002c0.112-0.002,0.198-0.04,0.271-0.09
			c0.139,0.101,0.259,0.239,0.347,0.463c0.2,0.511,0.235,2.77,0.354,3.3c0.054,0.235,0.137,0.456,0.249,0.653
			c-7.227,0.005-14.453,0.001-21.68,0.012c-1.405,0-2.81,0.007-4.216,0.028c-0.079,0.002-0.143,0.026-0.198,0.059
			c-0.395-0.132-0.643-0.309-0.807-0.814c-0.151-0.475-0.199-2.668-0.327-3.151c-0.162-0.609-0.511-1.053-1-1.236
			c-0.077-0.134-0.209-0.233-0.412-0.239c-4.146-0.11-8.306-0.008-12.451,0c-3.928,0.006-8.002-0.246-11.917,0.164
			c-0.051-0.069-0.133-0.122-0.252-0.124c-0.845-0.017-1.814,0.38-2.196,1.175c-0.244,0.509-0.178,2.682-0.281,3.218
			c-0.046,0.244-0.183,0.523-0.302,0.74c-0.056,0.103-0.46,0.395-0.697,0.423c-0.043-0.044-0.103-0.076-0.184-0.08
			c-6.578-0.345-13.252-0.139-19.838-0.076c-0.441,0.005-0.441,0.683,0,0.688c6.586,0.06,13.261,0.267,19.838-0.077
			c0.085-0.005,0.147-0.039,0.191-0.086c0.542,0.164,1.127-0.254,1.375-0.766c0.205-0.423,0.295-2.54,0.304-3.002
			c0.014-0.867,0.653-1.277,1.382-1.438c0.036,0.019,0.076,0.032,0.125,0.037c4.08,0.497,8.345,0.212,12.452,0.219
			c4.146,0.005,8.305,0.109,12.451-0.002c0.113-0.002,0.197-0.04,0.271-0.09c0.14,0.101,0.259,0.239,0.346,0.463
			c0.2,0.511,0.235,2.77,0.356,3.3c0.198,0.881,0.83,1.562,1.743,1.493c0.01,0.001,0.017,0.006,0.027,0.006
			c28.094,0.428,56.221,0.046,84.317,0.046c28.104,0.001,56.209,0.001,84.315,0.001c1.404,0,2.809-0.021,4.217-0.062
			C312.808,22.827,312.808,22.078,312.307,22.063z"/>
		<path display="inline" fill="#999999" d="M310.956,28.764c-0.379-0.573-0.852-1.01-1.576-0.882c-0.095,0.017-0.16,0.06-0.21,0.117
			c-0.529,0.07-1.178,0.491-1.47,0.924c-0.356,0.536-0.486,1.235-0.333,1.825c-0.042,0.02-0.081,0.046-0.114,0.088
			c-0.114,0.146-0.197,0.313-0.315,0.458c-0.124,0.136-0.237,0.283-0.328,0.451c-0.253,0.46,0.441,0.87,0.702,0.411
			c0.123-0.214,0.317-0.389,0.45-0.602c0.011-0.012,0.021-0.022,0.034-0.036c0.004-0.004,0.006-0.009,0.011-0.013
			c0.165,0.152,0.372,0.273,0.628,0.345c1.033,0.286,2.106-0.345,2.502-1.294C311.159,30.012,311.3,29.283,310.956,28.764z
			 M309.998,30.321c-0.23,0.482-0.702,0.68-1.219,0.67c-0.775-0.018-0.668-1.018-0.434-1.518c0.159-0.334,0.49-0.528,0.796-0.71
			c0.069-0.042,0.133-0.068,0.194-0.086c0.017,0.008,0.028,0.018,0.044,0.025C310.16,28.966,310.347,29.6,309.998,30.321z"/>
	</g>
	<g>
		<path fill="#333333" d="M209.158,232.615c-0.182-0.58-0.672-1.055-1.468-1.07c-1.784-0.047-3.469-0.08-5.115,0.645
			c-1.551,0.686-2.198,2.617-2.762,4.049c-1.58,3.979,1.069,8.744,5.237,9.488c1.768,0.316,3.531,0.129,5.095-0.785
			c1.734-1.021,2.297-2.9,2.949-4.658C214.329,236.972,212.206,233.746,209.158,232.615z M206.084,242.005
			c-2.574-0.07-2.744-2.736-2.186-4.803c0.511-1.896,0.685-2.275,3.456-2.371v0.004c0,1.109,2.512,1.973,2.64,3.227
			C210.222,240.279,208.217,242.06,206.084,242.005z"/>
		<path fill="#333333" d="M405.559,237.222c-0.102-0.312-0.297-0.551-0.527-0.725c1.826-33.23,0.658-66.848,0.75-100.045
			c0.047-18.916,0.061-37.832-0.15-56.746c-0.184-16.271,0.773-32.902-0.092-49.214c0.463-6.173,0.066-12.567-1.992-18.33
			c-1.861-5.215-6.24-6.417-10.939-6.611c0.084-0.483,0.197-0.962,0.279-1.45C319.684,2.028,318.879,3.7,245.661,4.013
			C170.5,4.335,95.334,4.072,20.189,5.284c-1.198,0.021-1.844,0.823-2.014,1.728c-3.792,0.921-7.096,2.11-9.295,6.16
			c-2.179,4.039-1.965,9.684-1.425,14.193c-2.821,26.482-0.754,54.147-0.796,80.659c-0.056,28.66-1.557,57.838,0.095,86.48
			c-0.908,13.619-1.103,27.689,0.271,40.914C5.703,247.57,10.269,262.48,24.322,260c0.109-0.018,0.172-0.066,0.264-0.1
			c14.739,1.896,30.195,0.895,44.964,0.955c19.229,0.08,38.453-0.008,57.689-0.008h38.782c0,0,0.019,0.131,0.037,0.145
			c0.854,0.508,1.498,1.287,1.995,2.172c0.03,0.621,0.279,1.242,0.71,1.766c1.333,4.43,0.348,11.105,0.355,15.809
			c-0.335,1.129-0.685,2.258-1.155,3.314c-0.757,1.711-2.294,1.783-3.575,2.689c-0.78,0.543-1.096,1.748-0.711,2.615
			c-9.452-0.025-18.898,0.139-28.249,1.051c-0.077,0.008-0.13,0.049-0.202,0.061c-0.858-0.307-2.034,0.189-2.11,1.482
			c-0.154,2.611-1.319,5.707-0.905,8.449c-0.671,0.162-1.366,0.293-2.027,0.484c-1.708,0.5-1.708,2.955,0,3.449
			c10.578,3.09,22.375,2.002,33.332,2.416c12.481,0.467,25.06,0.117,37.554,0.145c26.493,0.053,53.364,1.039,79.797-0.965
			c4.279-0.318,4.279-6.318,0-6.643c-0.066-0.002-0.125-0.002-0.191-0.012c0.033-2.439-0.85-5.066-0.986-7.324
			c-0.08-1.293-1.258-1.789-2.121-1.482c-0.061-0.012-0.117-0.053-0.189-0.061c-9.361-0.912-18.805-1.074-28.254-1.051
			c0.389-0.867,0.066-2.066-0.715-2.615c-1.275-0.9-2.816-0.971-3.57-2.684c-0.477-1.053-0.816-2.178-1.152-3.307
			c0.008-6.488-1.906-16.73,3.055-19.646c0.01-0.014,0.012-0.021,0.025-0.035c20.707,0.008-4.705,0.008,28.158,0.014
			c38.154,0,76.607,1.391,114.734-0.197c0.982-0.039,1.66-0.494,2.078-1.098c4.521-0.512,8.998-2.018,12.164-5.373
			C407.811,250.275,407.213,242.166,405.559,237.222z M11.427,17.52c0.839-5.097,4.953-6.583,9.18-7.916
			c75.004,1.209,150.031,0.943,225.054,1.266c72.955,0.316,73.482,1.973,146.434-0.067c-0.07-0.398-0.096-0.798-0.102-1.203
			c1.174,0.148,2.342,0.355,3.521,0.622c4.123,0.935,4.641,6.208,5.039,9.644c0.279,2.321,0.203,4.646,0.125,6.978
			c-1.242,17.478-0.152,35.374-0.346,52.865c-0.211,18.914-0.197,37.83-0.145,56.746c0.068,27.729-0.729,55.75,0.068,83.596
			c-0.256-0.139-0.559-0.234-0.908-0.268c-18.98-1.795-38.627-0.451-57.695-0.451l-100.395,0.02
			c-76.254,0.014-152.513,0.355-228.758,0.594c0.171-8.453-0.109-17.031-0.668-25.438c1.544-27.074,0.128-54.635,0.102-81.718
			c-0.026-28.144,2.225-57.586-0.836-85.69C11.292,23.908,10.9,20.717,11.427,17.52z M276.856,293.535
			c0.23,1.459,0.596,2.881,0.586,4.381c0,0.328-0.01,0.662-0.018,0.99c-23.48-1.514-47.309-1.865-71.021-1.58
			c-23.718-0.285-47.545,0.066-71.025,1.58c-0.004-0.328-0.02-0.662-0.02-0.99c-0.012-1.5,0.356-2.922,0.593-4.381
			c15.614,1.471,31.486,0.76,47.15,0.832c2.329,0.008,4.66,0.033,6.996,0.072c5.418,0.256,10.855,0.291,16.307,0.244
			c5.438,0.047,10.88,0.012,16.298-0.244c2.336-0.039,4.674-0.064,6.998-0.072C245.368,294.294,261.235,295.005,276.856,293.535z
			 M243.936,289.39c-6.354,0.057-12.705,0.152-19.021,0.123c-0.76,0-1.525-0.014-2.285-0.023
			c-5.389-0.227-10.816-0.256-16.226-0.203c-5.418-0.053-10.839-0.023-16.23,0.203c-0.764,0.01-1.526,0.023-2.286,0.023
			c-6.312,0.029-12.669-0.066-19.021-0.123c0.5-0.473,0.941-1.053,1.246-1.725c0.405-0.855,0.659-1.75,0.831-2.666
			c0.747,0.006,1.491-0.434,1.658-1.328c0.79-4.273,0.646-9.131,0.307-13.684c21.937,0.98,44.871,2.588,66.775,1.01
			c0.053,0,0.102-0.018,0.154-0.029c-0.295,4.27-0.375,8.732,0.361,12.703c0.17,0.895,0.916,1.334,1.66,1.328
			c0.172,0.916,0.424,1.811,0.822,2.666C242.999,288.337,243.434,288.917,243.936,289.39z M401.463,251.349
			c-1.803,3.158-6.299,4.381-10.133,4.818c-0.424-0.369-0.955-0.639-1.67-0.672c-36.537-1.52-73.387-0.197-109.959-0.191
			c-36.682,0.008-0.688,0.008-37.377,0.008c-36.761,0.006-73.526,0.006-110.291,0.006c-19.222,0-38.447,0-57.675,0.08
			c-16.335,0.07-33.513-1.035-49.799,1.096c-0.08-0.031-0.145-0.086-0.238-0.109c-6.764-1.711-11.838-2.955-12.912-10.967
			c-0.27-2.004-0.542-4.213-0.711-6.455c0.313-0.326,0.56-0.766,0.636-1.361c0.54-4.52,0.852-9.15,1.04-13.842
			c76.288,0.234,152.589,0.584,228.883,0.59l100.395,0.023c19.068,0.006,38.715,1.346,57.695-0.447
			c0.414-0.041,0.736-0.176,1.027-0.357c0.293,8.742,0.736,17.459,1.438,26.148c0.02,0.189,0.07,0.355,0.139,0.5
			C401.813,250.595,401.672,250.974,401.463,251.349z"/>
	</g>
	<g>
		<path fill="#FFFFFF" d="M396.352,313.859c0.086-0.551,0.051-1.125-0.16-1.672c-1.312-3.418-3.531-6.316-5.859-9.115
			c-1.969-4.469-6.471-7.463-10.439-10.266c-4.457-3.146-10.293-3.127-15.465-4.232c-2.717-0.586-5.006-0.82-7.779-0.438
			c-0.85,0.119-4.703-1.029-6.373-1.322c-2.645-0.469-5.262-1.627-7.797-2.502c-3.344-1.156-6.869-1.729-10.322-2.475
			c-6.275-1.348-12.811-0.973-19.172-1.59c-2.5-0.244-5.221,0.574-7.66,0.221c-3.268-0.479-6.438-1.396-9.686-1.908
			c-6.066-0.963-12.025-1.742-18.049-3.078c-2.738-0.609-6.486-1.256-9.777-2.512c-0.348-6.787-3.535-13.182-6.6-19.146
			c-1.404-2.744-3.158-5.754-5.578-7.695c-1.389-1.113-2.816-1.707-4.275-2.15c0.039-0.434,0.115-0.865,0.234-1.293
			c0.154-0.98,0.264-1.955,0.359-2.936c0.641-2.648,1.012-5.424,1.41-7.867c0.865-5.271,1.172-10.559,3.51-15.449
			c2.186-4.602,6.145-8.221,8.551-12.791c2.465-4.666,4.621-9.564,6.793-14.373c0.58-1.287,1.658-4.602,2.629-8.646
			c1.055,0.168,2.18-0.078,3.076-0.961c5.049-4.988,7.783-13.047,10.43-19.492c2.219-5.41,6.164-14.742,2.924-20.679
			c1.092-2.86-1.195-6.493-4.684-5.438c-0.854,0.259-1.709,0.428-2.582,0.571c-1.285,0.216-2.566,0.851-3.762,1.354
			c-0.902,0.385-1.744,0.882-2.512,1.47c-0.213,0.067-0.439,0.149-0.645,0.262c-0.592-3.897-1.336-7.722-2.109-11.394
			c-1.615-7.688-3.592-15.32-5.289-22.997c-0.906-4.065-1.889-8.113-2.789-12.181c-0.227-1.021-0.592-2.1-0.986-3.201
			c-0.477-2.625-1.107-5.187-1.922-7.662v-0.008c0.031-1.084-0.344-1.954-0.953-2.6c-2.932-7.457-7.645-14.028-14.709-19.117
			c0.244-2.477,0.188-5.072-1.252-7.155c-0.074-0.104-0.158-0.186-0.234-0.278c-0.562-1.564-1.781-2.913-3.709-3.497
			c-4.895-1.486-9.664,0.931-14.574,0.261c-4.223-0.573-8.512,0.262-12.734,0.552c-3.905-1.106-7.462-1.872-11.609-2.017
			c-4.408-0.153-8.684-1.31-13.127-1.114c-8.34,0.369-15.561,2.898-22.112,8.143c-6.51,5.215-12.048,11.028-16.828,17.865
			c-5.159,7.384-10.925,13.954-15.016,22.059c-3.584,7.096-5.444,14.65-7.656,22.267c-2.301,7.891-2.067,16.021-2.423,24.107
			c-2.64-3.203-7.113-6.331-11.086-4.081c-1.211,0.685-1.642,1.728-1.566,2.744c-0.06,0.788,0.19,1.591,0.87,2.233
			c-0.639,0.353-1.215,0.902-1.653,1.687c-2.35,4.192-0.968,9.356,0.27,13.724c1.676,5.978,2.508,11.929,5.375,17.53
			c2.1,4.111,3.433,9.348,8.047,11.303c0.313,0.4,0.625,0.807,0.938,1.225c1.48,1.988,3.328,3.771,5.654,4.709
			c1.02,1.795,1.873,3.77,2.926,5.715c0.49,2.277,1.198,4.453,2.139,6.332c2.521,5.025,5.335,9.809,7.636,14.947
			c2.551,5.703,6.1,10.83,8.468,16.615c1.094,2.664,2.519,4.943,2.805,7.871c0.036,0.383-0.119,1.455-0.389,2.621
			c-9.215,1.438-11.226,14.527-13.143,23.699c-0.619,1.566-1.356,2.908-2.261,3.523c-2.692,1.828-5.816,3.395-9.025,4.17
			c-0.112,0.025-0.231,0.053-0.349,0.078c-0.398,0.09-0.803,0.176-1.204,0.234c-0.271,0.047-0.508,0.129-0.721,0.229
			c-3.733,0.914-7.465,1.871-11.267,2.221c-2.929,0.273-5.878-0.074-8.798,0.49c-2.975,0.572-5.852,1.627-8.824,2.271
			c-6.54,1.408-13.195,1.551-19.715,2.982c-6.274,1.371-12.376,3.818-18.696,4.955c-0.483-0.297-1.06-0.508-1.725-0.578
			c-3.489-0.35-6.198,1.449-8.959,3.379c-3.137,2.197-6.445,3.764-9.463,6.262c-4.858,3.998-12.497,7.205-15.114,13.254
			c-0.175,0.402-0.234,0.793-0.217,1.166c-0.021,0.02-0.053,0.039-0.076,0.059c-0.089,0.092-0.171,0.191-0.24,0.297
			c-2.439,1.166-2.047,5.178,1.185,5.414c15.2,1.115,30.301,1.168,45.572,1.174c15.187,0.008,30.376,0.014,45.57,0.021
			c30.378,0.014,60.756,0.045,91.142,0.078c30.382,0.027,60.765-0.012,91.142,0.273c15.189,0.143,30.383,0.406,45.572,0.357
			l22.787-0.068c7.965-0.025,15.891,0.307,23.75-1.16C397.086,319.197,397.725,315.775,396.352,313.859z"/>
		<path fill="#D1D5E8" d="M374.42,309.623c-3.143-3.551-5.699-7.891-9.611-10.678c-3.549-2.514-8.504-4.166-12.715-5.098
			c-5.846-1.297-11.119-4.168-17.09-5.168c-3.014-0.51-6.168,0.047-9.078-0.654c-2.584-0.629-4.693-0.998-7.332-0.6
			c-5.893,0.885-12.881-1.592-18.766-2.584c-6.453-1.088-12.938-2.047-19.414-3.021c-6.32-0.945-12.129-3.016-18.203-4.91
			c-2.783-0.869-5.127-1.258-6.322-3.676c2.336-5.572-2.229-13.748-4.223-18.848c-1.037-2.689-1.729-6.605-4.076-8.561
			c-2.648-2.201-5.619-3.207-8.816-4.391c-1.258-0.467-2.191,0.047-2.682,0.902c-0.23-0.119-0.465-0.25-0.691-0.363
			c-0.004,0.008-0.004,0.023-0.004,0.033c-0.141-0.086-0.273-0.178-0.451-0.23c-0.029-0.014-0.049-0.02-0.076-0.025
			c-0.371-0.125-0.717-0.139-1.035-0.08c-3.848-1.258-8.395-1.033-12.258-1.02c-3.104,0.006-6.178,1.086-9.371,1.066
			c-3.849-0.023-7.409-0.691-11.28-0.205c-6.717,0.844-13.508,1.381-20.195,2.51c-1.127,0.189-2.235,0.367-3.337,0.564
			c-1.369,0.125-2.736,0.283-4.087,0.49c-1.637,0.254-3.048,0.812-4.355,1.551c-1.39,0.488-2.752,1.08-4.081,1.814
			c-0.277-1.281-1.413-2.373-3.064-1.93c-5.333,1.445-6.277,11.125-7.301,15.453c-0.378,1.607-2.294,8.393-2.057,12.369
			c-3.485,2.443-7.966,3.746-11.975,4.898c-6.096,1.744-12.379,3.158-18.577,4.529c-5.638,1.242-11.26,2.861-16.918,3.945
			c-5.947,1.139-11.878,2.32-17.493,4.641c-4.809,1.984-10.009,2.604-14.896,4.322c-5.095,1.791-10.289,4.381-14.947,7.09
			c-2.715,1.58-7.883,3.512-8.917,6.838c-1.03,1.988-0.296,5.043,2.206,5.492c12.03,2.123,24.81,0.508,36.982,0.572
			c12.629,0.059,25.261,0.303,37.894,0.516c25.887,0.439,51.78,0.07,77.673-0.182c25.886-0.25,51.773-0.428,77.671-0.52
			c25.877-0.092,51.852,0.547,77.67-1.328c0.672-0.051,1.197-0.277,1.604-0.607c1.725-0.025,3.439-0.053,5.156-0.078
			c0.104,0.025,0.201,0.057,0.311,0.072c1.076,0.158,3.857-0.312,4.668,0.094C373.829,316.275,376.852,312.373,374.42,309.623z"/>
		<path fill="#D1D5E8" d="M282.006,157.023c-0.123-6.213-0.332-12.408-0.672-18.614c-0.111-2.193-2.238-2.93-3.727-2.229
			c0,2.104-0.078,4.203-0.17,6.3c-0.25-2.812-0.854-5.62-2.412-7.088c-1.752-1.638-3.016-3.566-4.158-5.586
			c-1.031-9.25-2.607-18.414-4.748-27.488c-0.84-2.64-1.594-5.303-2.52-7.945c-1.336-3.783-3.297-7.019-6.451-9.522
			c-0.674-0.537-1.389-0.998-2.123-1.429c-0.031-0.042-0.059-0.079-0.092-0.12c0.465-1.164,0.465-2.485-0.314-3.675
			c-2.506-3.847-5.344-6.813-9.025-9.571c-0.332-0.244-0.705-0.494-1.094-0.739c0.143-2.222-1.203-4.518-3.863-4.19
			c-1.6,0.199-3.199,0.266-4.799,0.338c-0.5-1.672-1.854-2.964-4.098-2.742c-1.752,0.173-3.439,0.549-5.115,0.991
			c-0.211-2.943-2.844-5.48-6.436-4.659c-3.326,0.764-6.172,3.201-9.68,3.388c-3.85,0.208-7.722,0.534-11.556,0.956
			c-2.033,0.229-4.067,0.584-6.029,1.126c-0.405-1.69-1.837-3.163-3.759-3.075c-5.829,0.272-11.667,3.202-16.884,5.641
			c-1.88,0.88-3.49,2.043-5.083,3.276c-0.747-1.171-2.116-1.903-3.742-1.409c-0.105,0.033-0.21,0.071-0.316,0.105
			c-18.543,17.168-25.876,41.052-27.934,65.947c-1.221,2.524-3.413,3.887-4.977,6.181c-1.339,1.977-1.949,4.106-2.178,6.305
			c-0.455,0.013-0.916,0.105-1.357,0.266c-0.234-2.053-0.398-4.107-0.47-6.176c-0.06-2.24-2.913-2.396-3.683-0.5
			c-1.188,2.942-1.621,4.866-1.439,8.273c0.244,4.301,1.364,8.686,2.005,12.945c0.252,1.722,0.642,3.169,1.092,4.851
			c0.541,1.949,0.557,4.523,1.234,6.316c1.296,3.395,1.007,7.133,3.495,9.924c0.418,0.465,0.886,0.697,1.36,0.764
			c0.694,2.477,1.741,4.799,3.265,6.695c0.042,0.057,0.095,0.102,0.145,0.15c0.465,1.234,0.964,2.455,1.464,3.668
			c0.906-0.721,2.331-0.795,3.066,0.506c1.408,2.535,2.879,5.023,4.36,7.504c6.767,5.531,11.171,13.844,14.407,21.787
			c2.762,6.779,4.963,13.875,6.284,21.113c0.658-0.422,1.125-0.996,1.438-1.695c0.287,0.346,0.701,0.562,1.141,0.656
			c1.024,0.889,2.548,1.283,4.184,0.592c5.878-2.488,13.398-2.396,19.686-2.564c7.201-0.197,14.403-0.424,21.622-0.543
			c1.132-0.02,2.251-0.02,3.371-0.029c3.963,0.873,7.949,0.885,12.281,0.885c3.221-0.002,6.412-0.184,9.633-0.197
			c1.668-0.006,3.262,0.258,4.887,0.404c2.883-14.873,9.074-30.082,20.516-40.072c0.701-0.609,1.514-0.648,2.191-0.371
			c0.062-0.061,0.123-0.121,0.197-0.188c1.301-2.66,2.49-5.375,3.492-8.189c1.285-3.594,2.482-7.148,3.537-10.703
			c-0.154-0.172-0.275-0.383-0.359-0.615c1.359-0.096,2.748-0.889,3.312-2.342c1.17-2.984,1.947-6.045,2.463-9.146
			c0.803,0.031,1.625-0.332,2.238-1.236C282.155,165.736,282.116,162.31,282.006,157.023z"/>
		<path fill="#D3DCDE" d="M133.262,112.929c-1.037,3.24-1.554,6.527-2.008,9.855C131.863,119.495,132.541,116.21,133.262,112.929z"
			/>
		<g>
			<g>
				<path fill="#333333" d="M124.228,146.985c-0.027-0.651-1.012-0.655-1.019,0c-0.025,5.912,1.39,11.612,2.778,17.315
					c0.195,0.781,1.31,0.438,1.186-0.322C126.205,158.307,124.487,152.765,124.228,146.985z"/>
				<path fill="#333333" d="M393.618,306.457c-3.818-8.436-12.557-14.357-20.375-18.697c-4.543-2.521-9.912-3.836-15.012-4.551
					c-2.287-0.316-4.396-0.793-6.717-0.764c-0.922,0.014-1.783,0.123-2.627,0.105c0.119-0.553,0.23-1.107,0.359-1.664
					c-10.697-1.926-22.203-4.082-29.188-4.41c-10.703-0.502-21.49-1.602-32.127-2.762c-5.422-0.594-10.822-1.195-16.182-2.189
					c-2.238-4.098-2.746-4.164-4.564-8.471c-1.117-2.654-2.736-12.168-5.967-13.879c0.582-0.723,0.646-1.928-0.344-2.639
					c-2.973-2.146-6.09-3.996-9.387-5.611c1.834-3.543,2.824-7.459,4.131-11.219c1.783-5.09,3.945-10.027,6.467-14.795
					c1.201-2.266,2.561-4.475,3.807-6.746c0.139,0.197,0.318,0.352,0.512,0.494c1.891-2.98,3.684-6.018,5.479-9.053
					c0.104-0.285,0.203-0.566,0.309-0.852c0.043-0.062,0.092-0.115,0.135-0.188c1.859-3.193,2.734-6.385,3.045-10.088
					c0.072-0.898,0.105-1.781,0.148-2.66c0.529-0.055,1.055-0.332,1.438-0.879c0.516-0.744,1.102-1.428,1.68-2.125
					c4.832-2.771,7.221-9.795,9.254-14.562c2.842-6.662,4.588-13.922,5.299-21.117c0.475-4.823,1.008-11.255-2.666-15.052
					c-2.6-2.684-5.559,0.204-7.629,2.143c-1.264-0.018-2.662,0.561-3.887,1.169c-0.375-1.87-0.846-3.732-1.426-5.581
					c-0.473-1.532,0.047-2.744,1.002-3.494c-0.076-1.188-0.152-2.375-0.246-3.57c-0.531-6.459-1.703-12.403-3.238-18.68
					c-1.529-6.278-2.48-12.565-5.008-18.56c-2.467-5.848-4.205-11.208-8.125-16.283c-0.268-0.342-0.521-0.678-0.775-1.012
					c-0.355-1.943-0.609-3.9-0.705-5.869c-1.109-0.877-2.209-1.762-3.334-2.659c-2.459-1.98-5.191-3.641-8.07-5.08
					c0.275-0.448,0.371-1.001,0.152-1.594c-0.9-2.448-0.186-5.717-3.123-6.887c-4.07-1.609-7.684-0.656-11.883-0.298
					c-4.082,0.349-8.156,0.316-12.234,0.107c-5.385-1.256-10.552-1.617-16.019-2.485c-3.897-0.619-7.864-0.382-11.81-0.363
					c-6.451,1.321-12.887,2.755-19.354,3.996c-4.2,2.202-8.367,4.498-12.527,6.78c-0.013,0.007-0.018,0.008-0.018,0.011
					c0.959-0.469,1.926-0.919,2.901-1.348c-4.016,2.47-7.692,5.477-10.621,9.333c-0.018,0.016-0.034,0.03-0.043,0.042
					c-9.059,7.921-14.725,19.281-19.018,30.474c-2.235,5.822-4.647,11.675-6.234,17.728c-1.745,6.653-1.725,12.808-2.116,19.66
					c-0.158,2.751-0.277,5.495-0.378,8.238c-0.155-0.183-0.316-0.358-0.478-0.525c-0.012,0.097-0.012,0.195-0.012,0.289
					c-0.774-0.571-1.568-1.004-2.305-1.215c-0.22-0.067-0.45-0.023-0.654,0.079c-1.289-3.412-5.132-6.769-8.424-5.864
					c-5.045,1.386-3.777,9.492-3.745,13.278c0.079,9.422,2.735,18.818,5.253,27.822c1.2,4.273,2.938,9.184,6.24,12.246
					c0.305,0.654,0.651,1.312,1.017,2.062c0.694,1.459,2.528,2.473,3.68,3.545c1.434,1.33,2.932,2.588,4.97,2.463
					c0.105,0,0.204-0.033,0.3-0.061c0.247,0.699,0.506,1.387,0.753,2.084c1.488,4.059,1.81,8.992,4.951,12.096
					c1,2.027,2.129,3.996,3.271,5.98c2.473,4.314,4.954,8.537,7.209,12.869c0.124,0.438,0.266,0.865,0.405,1.281
					c1.04,3.012,2.478,5.891,3.488,8.932c0.788,2.363,1.278,4.799,1.843,7.209c-0.75,0.652-1.488,1.324-2.261,1.975
					c-0.675,0.566-1.616,1.014-2.216,1.613c-0.22,0.221-0.756,0.703-0.108,0.221c-0.112,0.088-0.215,0.189-0.316,0.293
					c-2.153,0.938-2.982,2.863-3.055,5.799c-2.851,7.205-4.371,10.598-6.458,17.945c-0.158,0.549-0.066,1.023,0.171,1.385
					c-6.069,1.533-13.66,1.844-16.434,2.189c-10.122,1.254-19.937,4.115-30.054,5.24c-5.987,0.664-21.434,3.416-34.385,5.947
					c-0.958,0.141-1.922,0.273-2.88,0.371c-3.36,0.336-6.866,2.607-9.755,4.242c-3.667,2.074-6.814,4.869-10.23,7.291
					c-2.742,1.936-5.141,4.289-6.754,7.256c-0.83,1.523,0.826,3.164,2.343,2.342c5.793-3.125,10.678-7.836,16.165-11.441
					c2.725-1.789,6.408-4.133,9.66-4.555c0.603-0.08,1.225-0.072,1.85-0.086c0.039,0.225,0.065,0.451,0.099,0.68
					c14.686-2.555,39.256-6.916,47.981-8.947c10.161-2.363,20.506-3.6,30.805-5.188c1.583-0.236,3.485-0.736,5.358-1.475
					c0.042-1.73,0.122-3.465,0.24-5.199c-0.171,0.074-0.359,0.141-0.53,0.217c2.617-8.703,3.476-13.846,7.882-21.951
					c0.011-0.021,0.014-0.043,0.03-0.061c2.235,0.867,5.276,0.348,7.541,0.445c4.227,0.186,8.624-0.607,12.79-1.234
					c10.398-1.562,20.967-2.129,31.499-2.102c5.082,0.012,10.155,0.025,15.233,0.031c4.621,0.014,9.061,0.715,13.648,0.992
					c4.125,0.246,7.996,0.971,12.186,0.98c3.387,0.01,6.717,1.635,10.096,2.439c0.016-0.092,0.031-0.195,0.049-0.289
					c0.051-0.311,0.164-0.594,0.312-0.848c3.305,4.822,5.463,10.381,7.346,15.889c0.879,2.566,0.354,0.5,1.299,3.027
					c0.842,2.238,2.068,4.371,3.172,6.504c-0.047,0.414-0.094,0.834-0.139,1.221c0.441,0.133,0.889,0.248,1.33,0.365
					c0.066,0.023,0.127,0.047,0.193,0.053c0.688,0.184,1.365,0.363,2.027,0.535c5.764,1.492,11.783,2.039,17.68,2.777
					c2.684,0.338,5.594,1.184,8.299,1.207c3.605,0.033,7.111,0.115,10.643,0.893c4.512,0.994,9.975,0.836,14.617,1.086
					c4.713,0.256,16.078,2.793,24.631,4.488c0.293,0.178,0.594,0.334,0.916,0.455c2.396,0.896,5.754,0.34,8.305,0.822
					c5.131,0.969,10.236,2.041,14.953,4.385c2.561,1.277,4.938,2.963,7.408,4.412c2.143,1.256,3.803,3.211,5.904,4.441
					c2.182,1.277,3.506,2.291,5.111,4.359c1.211,1.557,1.863,2.234,3.779,2.395C393.575,308.494,393.979,307.263,393.618,306.457z
					 M276.92,176.976c0.189,0.1,0.436,0.1,0.629-0.062c2.693-2.232,3.082-5.994,3.641-9.245c0.711-4.128,2.18-7.867,2.133-12.106
					c-0.008-0.56-0.82-0.546-0.861,0c-0.277,3.646-1.619,6.975-2.424,10.513c-0.779,3.423-1.295,6.347-2.91,9.407
					c0.051-0.51,0.076-1.043,0.066-1.633c-0.041-4.689,1.295-9.091,1.857-13.725c0.098-0.754,0.211-1.533,0.318-2.314v-0.004
					c0.248-1.816,0.449-3.679,0.215-5.423c-0.027-0.25-0.068-0.497-0.119-0.744c-0.068-2.351-0.207-4.7-0.283-7.1
					c0.068-0.256,0.059-0.5-0.016-0.719c-0.008-0.255-0.018-0.512-0.018-0.767c-0.025-1.502-0.053-2.983-0.084-4.472
					c0.889-0.438,1.777-0.867,2.705-1.201c0.867-0.312,1.852-0.369,2.629-0.88c0.322-0.212,0.5-0.559,0.527-0.91
					c0.619-0.288,1.244-0.576,1.828-0.961c2.371-1.563,2.775,5.131,2.785,5.684c0.096,4.881-0.645,9.812-1.779,14.542
					c-1.709,7.105-4.449,14.211-8.525,20.33c-0.025,0.488-0.064,0.975-0.096,1.455c-0.555,0.758-1.045,1.576-1.654,2.314
					c-0.357,0.443-0.824,0.838-1.309,1.236C276.463,179.001,276.731,177.996,276.92,176.976z M124.53,181.285
					c-0.438-1.168-0.863-2.402-1.465-3.49c0.01-0.104,0.027-0.209,0.05-0.309c-2.92-5.035-3.937-11.75-5.187-16.927
					c-1.509-6.261-2.439-12.528-2.594-18.971c-0.037-1.413-0.103-2.819-0.056-4.232c0.184-4.801,6.737-1.087,6.523,2.006
					c-0.076,1.083,1.706,1.333,1.9,0.258c0.035-0.196,0.042-0.398,0.051-0.605c0.685,0.703,1.607,1.436,2.404,2.186
					c-0.023,0.671-0.053,1.338-0.069,2.011c0.151,0.194,0.321,0.346,0.5,0.459c-0.085,3.874-0.103,7.738-0.082,11.608
					c0.174-0.072,0.353-0.128,0.529-0.178c0.013,0.129,0.034,0.25,0.047,0.379c0.99,6.471,0.937,13.273,1.358,19.805
					c0.284,4.424,1.374,8.59,2.729,12.711C128.637,186.037,125.688,184.417,124.53,181.285z M247.247,243.001
					c-3.668-0.77-7.422-0.178-11.139-0.984c-8.857-1.912-18.283-1.336-27.283-1.316c-10.331,0.029-20.821,0.096-31.093,1.326
					c-4.362,0.52-9.068,1.188-13.312,2.244c-1.906,0.475-3.887,0.607-5.849,0.732c-0.046-0.732-0.138-1.449-0.257-2.166
					c0.307-0.393,0.533-0.721,0.659-0.941c0.477-0.855-0.327-1.791-1.186-1.6c-0.092-0.361-0.19-0.727-0.295-1.086
					c0.096-0.201,0.154-0.438,0.138-0.725c-0.58-9.006-5.384-16.586-10.035-24.066c-0.049-0.08-0.096-0.158-0.151-0.24
					c-1.033-2.607-2.338-5.053-4.319-6.932c-1.065-1.771-2.073-3.568-2.958-5.412c-0.33-0.688-0.623-1.385-0.889-2.09
					c-0.046-0.424-0.089-0.852-0.092-1.289c-0.007-0.422-0.06-0.848-0.135-1.281c1.912,3.045,3.091,6.6,4.979,9.674
					c2.16,3.512,5.359,6.215,8.242,9.119c2.235,2.252,4.305,4.787,7.028,6.445c0.76,0.461,1.833-0.121,1.903-0.955
					c4.72,2.979,9.646,6.07,14.939,6.781c2.479,0.332,2.795-3.539,0.572-4.213c-6.621-1.998-12.282-6.414-18.609-9.223
					c-1.303-0.58-2.666,0.193-3.007,1.281c-0.066-0.07-0.135-0.139-0.201-0.201c-2.801-2.781-6.099-5.484-8.427-8.68
					c-1.507-2.066-2.695-4.342-3.836-6.623c-1.337-2.705-5.264-8.768-4.836-11.461c0.151-0.943-1.27-1.369-1.464-0.396
					c-0.027,0.137-0.041,0.271-0.06,0.406c-1.962-5.615-3.371-11.049-3.664-17.064c-0.119-2.334,0.142-4.605-0.516-6.859
					c-0.774-2.63,0.042-5.734-0.79-8.252c-0.05-0.129-0.076-0.26-0.119-0.392c-0.158-7.886-0.007-15.795,0.595-23.613
					c0.472-6.085-0.036-12.348,1.175-18.343c1.149-5.632,3.531-11.194,5.599-16.521c4.137-10.677,8.363-21.162,16.003-29.777
					c3.897-4.391,8.407-8.042,13.319-11.135c1.864-1.173,3.776-2.226,5.793-3.034c3.199-1.55,6.577-2.786,10.069-3.748
					c-0.264-0.021-0.545-0.042-0.808-0.064c0.925-0.186,1.863-0.329,2.805-0.452c13.419-3.244,28.387-2.592,41.725,0.203
					c5.033-0.711,10.062-1.465,15.16-1.546c1.238-0.021,2.004,1.021,2.123,2.189c0.283,2.952,0.576,5.906,0.828,8.857
					c1.002,0.461,1.977,0.955,2.928,1.458c2.451,2.729,5.676,4.754,7.379,8.096c1.27,2.495,3.348,4.641,4.791,7.047
					c1.756,2.921,2.4,6.194,3.795,9.229c2.684,5.82,4.205,12.114,5.27,18.439c0.561,3.286,1.598,6.568,2.371,9.805
					c0.812,3.37,0.895,7.267,1.168,10.73c0.496,6.221,0.959,12.426,1.357,18.67c0.312,4.896,0.912,9.362,0.846,14.072
					c0.131-0.06,0.262-0.103,0.398-0.138c-0.623,3.863-1.037,7.686-2.426,11.417c-0.541,1.448-0.105,3.897-0.117,5.444
					c-0.002,0.418-0.035,0.832-0.074,1.25c-0.195,0.137-0.35,0.312-0.461,0.547c-1.775,3.721-3.291,7.537-5.102,11.244
					c-1.611,3.297-1.855,7.004-3.828,10.295c-2.111,3.51-5.168,6.916-7.734,10.088c-2.512,3.111-4.875,6.824-8.295,8.982
					c-1.584,1.004-0.17,3.449,1.479,2.518c6.045-3.398,10.098-9.861,14.508-15.311c-2.146,3.564-4.689,6.898-6.717,10.535
					c-4.318,7.756-8.779,17.496-9.568,26.391c-0.051,0.5,0.102,0.914,0.371,1.234C247.645,242.066,247.415,242.525,247.247,243.001z
					 M257.801,248.208c-0.189-0.24-0.377-0.467-0.564-0.701c0.236-0.057,0.482-0.105,0.73-0.119
					C257.827,247.623,257.768,247.9,257.801,248.208z M260.02,248.91c0.357-0.029,0.596-0.221,0.73-0.451
					c0.152,0.188,0.297,0.395,0.404,0.639l0.02,0.053C260.809,248.966,260.422,248.875,260.02,248.91z"/>
				<path fill="#333333" d="M196.156,228.97c-2.063,0.201-4.301-0.994-6.236-1.596c-2.045-0.633-2.821,2.438-0.872,3.16
					c1.8,0.66,3.538,1.441,5.384,1.895c0.277,0.186,0.609,0.303,1.018,0.307c0.237,0.004,0.471,0.01,0.707,0.012
					C198.632,232.798,198.556,228.736,196.156,228.97z"/>
				<path fill="#333333" d="M210.925,228.201c-1.668-0.498-3.32-1.004-4.83-0.24c-0.366-0.105-0.732-0.254-1.028-0.33
					c-0.728-0.197-1.484-0.27-2.234-0.27c-2.091,0-2.018,3.008,0,3.186c0.753,0.066,1.518,0.297,2.284,0.553
					c0.349,0.469,0.878,0.783,1.526,0.758c0.48-0.023,0.981-0.014,1.456-0.131c0.095-0.021,0.184-0.061,0.272-0.094
					c0.073,0.02,0.133,0.043,0.186,0.053c0.822,0.197,1.549,0.1,2.368-0.068C212.713,231.251,212.525,228.671,210.925,228.201z"/>
				<path fill="#333333" d="M237.395,222.035c-0.955,0.449-1.793,0.969-2.627,1.619c-0.238,0.182-0.475,0.369-0.711,0.555
					c0.059-0.156,0.102-0.311,0.133-0.469c0.367-2.004-2.357-3.436-3.441-1.455c-1.006,1.857-3.846,4-5.996,4.27
					c-1.793,0.227-1.906,2.973,0,2.893c1.314-0.055,2.762-0.473,4.141-1.121c0.662,1.131,1.965,1.654,3.311,1.445
					c2.881-0.441,5.895-3.275,7.088-5.834C239.897,222.64,238.682,221.439,237.395,222.035z"/>
			</g>
			<path fill="#333333" d="M24.517,310.845c-1.083,1.064-2.284,2.25-2.229,3.889c0.016,0.605,0.398,1.146,0.994,1.307
				c0.642,0.178,1.564-0.213,1.666-0.947c0.118-0.797,1.027-1.57,1.636-2.186C27.904,311.568,25.863,309.521,24.517,310.845z"/>
		</g>
	</g>
</g>
</svg>
